<?xml version="1.0" encoding="utf-8" standalone="no"?>
<!DOCTYPE svg PUBLIC "-//W3C//DTD SVG 1.1//EN"
  "http://www.w3.org/Graphics/SVG/1.1/DTD/svg11.dtd">
<svg xmlns:xlink="http://www.w3.org/1999/xlink" width="509.99976pt" height="144pt" viewBox="0 0 509.99976 144" xmlns="http://www.w3.org/2000/svg" version="1.1">
 <metadata>
  <rdf:RDF xmlns:dc="http://purl.org/dc/elements/1.1/" xmlns:cc="http://creativecommons.org/ns#" xmlns:rdf="http://www.w3.org/1999/02/22-rdf-syntax-ns#">
   <cc:Work>
    <dc:type rdf:resource="http://purl.org/dc/dcmitype/StillImage"/>
    <dc:date>2025-01-28T11:53:27.930836</dc:date>
    <dc:format>image/svg+xml</dc:format>
    <dc:creator>
     <cc:Agent>
      <dc:title>Matplotlib v3.6.3, https://matplotlib.org/</dc:title>
     </cc:Agent>
    </dc:creator>
   </cc:Work>
  </rdf:RDF>
 </metadata>
 <defs>
  <style type="text/css">*{stroke-linejoin: round; stroke-linecap: butt}</style>
 </defs>
 <g id="figure_1">
  <g id="patch_1">
   <path d="M 0 144 
L 509.99976 144 
L 509.99976 0 
L 0 0 
z
" style="fill: #ffffff"/>
  </g>
  <g id="axes_1">
   <g id="patch_2">
    <path d="M 31.844295 108.796126 
L 88.358612 108.796126 
L 88.358612 32.702132 
L 31.844295 32.702132 
z
" style="fill: #ffffff"/>
   </g>
   <g id="patch_3">
    <path d="M 31.844295 107.497039 
L 31.919584 107.497039 
L 31.919584 105.419986 
L 31.844295 105.419986 
z
" clip-path="url(#pa5ff424f56)" style="fill: #191970"/>
   </g>
   <g id="patch_4">
    <path d="M 31.844295 105.419986 
L 32.095258 105.419986 
L 32.095258 103.342933 
L 31.844295 103.342933 
z
" clip-path="url(#pa5ff424f56)" style="fill: #191970"/>
   </g>
   <g id="patch_5">
    <path d="M 31.844295 103.342933 
L 32.856512 103.342933 
L 32.856512 101.26588 
L 31.844295 101.26588 
z
" clip-path="url(#pa5ff424f56)" style="fill: #191970"/>
   </g>
   <g id="patch_6">
    <path d="M 31.844295 101.26588 
L 35.023157 101.26588 
L 35.023157 99.188827 
L 31.844295 99.188827 
z
" clip-path="url(#pa5ff424f56)" style="fill: #191970"/>
   </g>
   <g id="patch_7">
    <path d="M 31.844295 99.188827 
L 39.557219 99.188827 
L 39.557219 97.111773 
L 31.844295 97.111773 
z
" clip-path="url(#pa5ff424f56)" style="fill: #191970"/>
   </g>
   <g id="patch_8">
    <path d="M 31.844295 97.111773 
L 46.199368 97.111773 
L 46.199368 95.03472 
L 31.844295 95.03472 
z
" clip-path="url(#pa5ff424f56)" style="fill: #191970"/>
   </g>
   <g id="patch_9">
    <path d="M 31.844295 95.03472 
L 55.627205 95.03472 
L 55.627205 92.957667 
L 31.844295 92.957667 
z
" clip-path="url(#pa5ff424f56)" style="fill: #191970"/>
   </g>
   <g id="patch_10">
    <path d="M 31.844295 92.957667 
L 63.147724 92.957667 
L 63.147724 90.880614 
L 31.844295 90.880614 
z
" clip-path="url(#pa5ff424f56)" style="fill: #191970"/>
   </g>
   <g id="patch_11">
    <path d="M 31.844295 90.880614 
L 70.283433 90.880614 
L 70.283433 88.803561 
L 31.844295 88.803561 
z
" clip-path="url(#pa5ff424f56)" style="fill: #191970"/>
   </g>
   <g id="patch_12">
    <path d="M 31.844295 88.803561 
L 75.394709 88.803561 
L 75.394709 86.726508 
L 31.844295 86.726508 
z
" clip-path="url(#pa5ff424f56)" style="fill: #191970"/>
   </g>
   <g id="patch_13">
    <path d="M 31.844295 86.726508 
L 78.515013 86.726508 
L 78.515013 84.649454 
L 31.844295 84.649454 
z
" clip-path="url(#pa5ff424f56)" style="fill: #191970"/>
   </g>
   <g id="patch_14">
    <path d="M 31.844295 84.649454 
L 82.672631 84.649454 
L 82.672631 82.572401 
L 31.844295 82.572401 
z
" clip-path="url(#pa5ff424f56)" style="fill: #191970"/>
   </g>
   <g id="patch_15">
    <path d="M 31.844295 82.572401 
L 84.989854 82.572401 
L 84.989854 80.495348 
L 31.844295 80.495348 
z
" clip-path="url(#pa5ff424f56)" style="fill: #191970"/>
   </g>
   <g id="patch_16">
    <path d="M 31.844295 80.495348 
L 85.667454 80.495348 
L 85.667454 78.418295 
L 31.844295 78.418295 
z
" clip-path="url(#pa5ff424f56)" style="fill: #191970"/>
   </g>
   <g id="patch_17">
    <path d="M 31.844295 78.418295 
L 84.738891 78.418295 
L 84.738891 76.341242 
L 31.844295 76.341242 
z
" clip-path="url(#pa5ff424f56)" style="fill: #191970"/>
   </g>
   <g id="patch_18">
    <path d="M 31.844295 76.341242 
L 84.881103 76.341242 
L 84.881103 74.264189 
L 31.844295 74.264189 
z
" clip-path="url(#pa5ff424f56)" style="fill: #191970"/>
   </g>
   <g id="patch_19">
    <path d="M 31.844295 74.264189 
L 82.6559 74.264189 
L 82.6559 72.187135 
L 31.844295 72.187135 
z
" clip-path="url(#pa5ff424f56)" style="fill: #191970"/>
   </g>
   <g id="patch_20">
    <path d="M 31.844295 72.187135 
L 82.505322 72.187135 
L 82.505322 70.110082 
L 31.844295 70.110082 
z
" clip-path="url(#pa5ff424f56)" style="fill: #191970"/>
   </g>
   <g id="patch_21">
    <path d="M 31.844295 70.110082 
L 82.262725 70.110082 
L 82.262725 68.033029 
L 31.844295 68.033029 
z
" clip-path="url(#pa5ff424f56)" style="fill: #191970"/>
   </g>
   <g id="patch_22">
    <path d="M 31.844295 68.033029 
L 81.242143 68.033029 
L 81.242143 65.955976 
L 31.844295 65.955976 
z
" clip-path="url(#pa5ff424f56)" style="fill: #191970"/>
   </g>
   <g id="patch_23">
    <path d="M 31.844295 65.955976 
L 76.607696 65.955976 
L 76.607696 63.878923 
L 31.844295 63.878923 
z
" clip-path="url(#pa5ff424f56)" style="fill: #191970"/>
   </g>
   <g id="patch_24">
    <path d="M 31.844295 63.878923 
L 73.529219 63.878923 
L 73.529219 61.80187 
L 31.844295 61.80187 
z
" clip-path="url(#pa5ff424f56)" style="fill: #191970"/>
   </g>
   <g id="patch_25">
    <path d="M 31.844295 61.80187 
L 69.003523 61.80187 
L 69.003523 59.724816 
L 31.844295 59.724816 
z
" clip-path="url(#pa5ff424f56)" style="fill: #191970"/>
   </g>
   <g id="patch_26">
    <path d="M 31.844295 59.724816 
L 64.511288 59.724816 
L 64.511288 57.647763 
L 31.844295 57.647763 
z
" clip-path="url(#pa5ff424f56)" style="fill: #191970"/>
   </g>
   <g id="patch_27">
    <path d="M 31.844295 57.647763 
L 60.420594 57.647763 
L 60.420594 55.57071 
L 31.844295 55.57071 
z
" clip-path="url(#pa5ff424f56)" style="fill: #191970"/>
   </g>
   <g id="patch_28">
    <path d="M 31.844295 55.57071 
L 55.685763 55.57071 
L 55.685763 53.493657 
L 31.844295 53.493657 
z
" clip-path="url(#pa5ff424f56)" style="fill: #191970"/>
   </g>
   <g id="patch_29">
    <path d="M 31.844295 53.493657 
L 50.465736 53.493657 
L 50.465736 51.416604 
L 31.844295 51.416604 
z
" clip-path="url(#pa5ff424f56)" style="fill: #191970"/>
   </g>
   <g id="patch_30">
    <path d="M 31.844295 51.416604 
L 45.362825 51.416604 
L 45.362825 49.339551 
L 31.844295 49.339551 
z
" clip-path="url(#pa5ff424f56)" style="fill: #191970"/>
   </g>
   <g id="patch_31">
    <path d="M 31.844295 49.339551 
L 39.766355 49.339551 
L 39.766355 47.262497 
L 31.844295 47.262497 
z
" clip-path="url(#pa5ff424f56)" style="fill: #191970"/>
   </g>
   <g id="patch_32">
    <path d="M 31.844295 47.262497 
L 36.093932 47.262497 
L 36.093932 45.185444 
L 31.844295 45.185444 
z
" clip-path="url(#pa5ff424f56)" style="fill: #191970"/>
   </g>
   <g id="patch_33">
    <path d="M 31.844295 45.185444 
L 33.617765 45.185444 
L 33.617765 43.108391 
L 31.844295 43.108391 
z
" clip-path="url(#pa5ff424f56)" style="fill: #191970"/>
   </g>
   <g id="patch_34">
    <path d="M 31.844295 43.108391 
L 32.639011 43.108391 
L 32.639011 41.031338 
L 31.844295 41.031338 
z
" clip-path="url(#pa5ff424f56)" style="fill: #191970"/>
   </g>
   <g id="patch_35">
    <path d="M 31.844295 41.031338 
L 32.128719 41.031338 
L 32.128719 38.954285 
L 31.844295 38.954285 
z
" clip-path="url(#pa5ff424f56)" style="fill: #191970"/>
   </g>
   <g id="patch_36">
    <path d="M 31.844295 38.954285 
L 31.936315 38.954285 
L 31.936315 36.877232 
L 31.844295 36.877232 
z
" clip-path="url(#pa5ff424f56)" style="fill: #191970"/>
   </g>
   <g id="patch_37">
    <path d="M 31.844295 36.877232 
L 31.877757 36.877232 
L 31.877757 34.800178 
L 31.844295 34.800178 
z
" clip-path="url(#pa5ff424f56)" style="fill: #191970"/>
   </g>
   <g id="matplotlib.axis_1">
    <g id="xtick_1">
     <g id="line2d_1">
      <defs>
       <path id="md00553dedd" d="M 0 0 
L 0 3.5 
" style="stroke: #000000; stroke-width: 0.8"/>
      </defs>
      <g>
       <use xlink:href="#md00553dedd" x="31.844295" y="108.796126" style="stroke: #000000; stroke-width: 0.8"/>
      </g>
     </g>
     <g id="text_1">
      <!-- $\mathdefault{0.0}$ -->
      <g transform="translate(26.43395 121.330928) scale(0.08 -0.08)">
       <defs>
        <path id="CMR17-30" d="M 2688 2025 
C 2688 2416 2682 3080 2413 3591 
C 2176 4039 1798 4198 1466 4198 
C 1158 4198 768 4058 525 3597 
C 269 3118 243 2524 243 2025 
C 243 1661 250 1106 448 619 
C 723 -39 1216 -128 1466 -128 
C 1760 -128 2208 -7 2470 600 
C 2662 1042 2688 1559 2688 2025 
z
M 1466 -26 
C 1056 -26 813 325 723 812 
C 653 1188 653 1738 653 2096 
C 653 2588 653 2997 736 3387 
C 858 3929 1216 4096 1466 4096 
C 1728 4096 2067 3923 2189 3400 
C 2272 3036 2278 2607 2278 2096 
C 2278 1680 2278 1169 2202 792 
C 2067 95 1690 -26 1466 -26 
z
" transform="scale(0.015625)"/>
        <path id="CMMI12-3a" d="M 1178 307 
C 1178 492 1024 619 870 619 
C 685 619 557 466 557 313 
C 557 128 710 0 864 0 
C 1050 0 1178 153 1178 307 
z
" transform="scale(0.015625)"/>
       </defs>
       <use xlink:href="#CMR17-30" transform="scale(0.996264)"/>
       <use xlink:href="#CMMI12-3a" transform="translate(45.690477 0) scale(0.996264)"/>
       <use xlink:href="#CMR17-30" transform="translate(72.787654 0) scale(0.996264)"/>
      </g>
     </g>
    </g>
    <g id="xtick_2">
     <g id="line2d_2">
      <g>
       <use xlink:href="#md00553dedd" x="72.518722" y="108.796126" style="stroke: #000000; stroke-width: 0.8"/>
      </g>
     </g>
     <g id="text_2">
      <!-- $\mathdefault{0.5}$ -->
      <g transform="translate(67.108377 121.330928) scale(0.08 -0.08)">
       <defs>
        <path id="CMR17-35" d="M 730 3692 
C 794 3666 1056 3584 1325 3584 
C 1920 3584 2246 3911 2432 4100 
C 2432 4157 2432 4192 2394 4192 
C 2387 4192 2374 4192 2323 4163 
C 2099 4058 1837 3973 1517 3973 
C 1325 3973 1037 3999 723 4139 
C 653 4171 640 4171 634 4171 
C 602 4171 595 4164 595 4037 
L 595 2203 
C 595 2089 595 2057 659 2057 
C 691 2057 704 2070 736 2114 
C 941 2401 1222 2522 1542 2522 
C 1766 2522 2246 2382 2246 1289 
C 2246 1085 2246 715 2054 421 
C 1894 159 1645 25 1370 25 
C 947 25 518 320 403 814 
C 429 807 480 795 506 795 
C 589 795 749 840 749 1038 
C 749 1210 627 1280 506 1280 
C 358 1280 262 1190 262 1011 
C 262 454 704 -128 1382 -128 
C 2042 -128 2669 440 2669 1264 
C 2669 2030 2170 2624 1549 2624 
C 1222 2624 947 2503 730 2274 
L 730 3692 
z
" transform="scale(0.015625)"/>
       </defs>
       <use xlink:href="#CMR17-30" transform="scale(0.996264)"/>
       <use xlink:href="#CMMI12-3a" transform="translate(45.690477 0) scale(0.996264)"/>
       <use xlink:href="#CMR17-35" transform="translate(72.787654 0) scale(0.996264)"/>
      </g>
     </g>
    </g>
    <g id="text_3">
     <!-- prob.\ (arb.\ units) -->
     <g transform="translate(27.844176 132.858258) scale(0.08 -0.08)">
      <defs>
       <path id="CMR17-70" d="M 1408 -1063 
C 998 -1063 973 -1037 973 -789 
L 973 402 
C 1158 134 1427 -38 1766 -38 
C 2406 -38 3053 523 3053 1388 
C 3053 2191 2496 2802 1837 2802 
C 1453 2802 1139 2592 960 2338 
L 960 2802 
L 198 2732 
L 198 2567 
C 576 2567 634 2528 634 2223 
L 634 -789 
C 634 -1031 608 -1063 198 -1063 
L 198 -1228 
C 352 -1216 634 -1216 800 -1216 
C 966 -1216 1254 -1216 1408 -1228 
L 1408 -1063 
z
M 973 2012 
C 973 2102 973 2235 1222 2471 
C 1254 2497 1472 2688 1792 2688 
C 2259 2688 2643 2108 2643 1382 
C 2643 656 2234 64 1728 64 
C 1498 64 1248 172 1056 472 
C 973 612 973 650 973 752 
L 973 2012 
z
" transform="scale(0.015625)"/>
       <path id="CMR17-72" d="M 960 1497 
C 960 2112 1222 2688 1702 2688 
C 1747 2688 1792 2682 1837 2662 
C 1837 2662 1696 2617 1696 2452 
C 1696 2298 1818 2234 1914 2234 
C 1990 2234 2131 2279 2131 2458 
C 2131 2663 1926 2790 1709 2790 
C 1222 2790 1011 2317 947 2093 
L 941 2093 
L 941 2790 
L 198 2720 
L 198 2554 
C 576 2554 634 2515 634 2208 
L 634 428 
C 634 184 608 153 198 153 
L 198 -13 
C 352 0 646 0 813 0 
C 998 0 1325 0 1498 -13 
L 1498 153 
C 1037 153 960 153 960 440 
L 960 1497 
z
" transform="scale(0.015625)"/>
       <path id="CMR17-6f" d="M 2758 1356 
C 2758 2176 2163 2816 1466 2816 
C 768 2816 173 2176 173 1356 
C 173 551 768 -64 1466 -64 
C 2163 -64 2758 551 2758 1356 
z
M 1466 51 
C 1165 51 909 230 762 480 
C 602 767 582 1126 582 1408 
C 582 1677 595 2010 762 2298 
C 890 2509 1139 2714 1466 2714 
C 1754 2714 1997 2554 2150 2330 
C 2349 2029 2349 1607 2349 1408 
C 2349 1158 2336 775 2163 467 
C 1984 173 1709 51 1466 51 
z
" transform="scale(0.015625)"/>
       <path id="CMR17-62" d="M 960 4396 
L 198 4326 
L 198 4160 
C 576 4160 634 4122 634 3817 
L 634 -13 
L 749 -13 
L 934 441 
C 1120 141 1395 -64 1766 -64 
C 2406 -64 3053 500 3053 1370 
C 3053 2188 2477 2790 1830 2790 
C 1434 2790 1152 2579 960 2330 
L 960 4396 
z
M 973 2004 
C 973 2118 973 2138 1062 2272 
C 1312 2657 1670 2688 1792 2688 
C 1984 2688 2643 2585 2643 1376 
C 2643 108 1888 38 1734 38 
C 1536 38 1248 114 1043 486 
C 973 608 973 621 973 735 
L 973 2004 
z
" transform="scale(0.015625)"/>
       <path id="CMR17-2e" d="M 1062 261 
C 1062 420 934 522 800 522 
C 672 522 538 420 538 261 
C 538 102 666 0 800 0 
C 928 0 1062 102 1062 261 
z
" transform="scale(0.015625)"/>
       <path id="CMR17-28" d="M 1958 -1561 
C 1958 -1555 1958 -1542 1939 -1523 
C 1645 -1224 858 -407 858 1581 
C 858 3569 1632 4379 1946 4697 
C 1946 4704 1958 4717 1958 4736 
C 1958 4755 1939 4768 1914 4768 
C 1843 4768 1299 4296 986 3594 
C 666 2887 576 2199 576 1588 
C 576 1128 621 351 1005 -471 
C 1312 -1135 1837 -1600 1914 -1600 
C 1946 -1600 1958 -1587 1958 -1561 
z
" transform="scale(0.015625)"/>
       <path id="CMR17-61" d="M 2304 1653 
C 2304 2072 2304 2294 2035 2543 
C 1798 2752 1523 2816 1306 2816 
C 800 2816 435 2407 435 1971 
C 435 1728 627 1728 666 1728 
C 749 1728 896 1778 896 1954 
C 896 2112 774 2181 666 2181 
C 640 2181 608 2174 589 2168 
C 723 2592 1069 2714 1293 2714 
C 1613 2714 1965 2429 1965 1885 
L 1965 1600 
C 1587 1600 1133 1549 774 1357 
C 371 1133 256 813 256 570 
C 256 77 832 -64 1171 -64 
C 1523 -64 1850 139 1990 511 
C 2003 233 2182 -18 2464 -18 
C 2598 -18 2938 70 2938 567 
L 2938 920 
L 2822 920 
L 2822 562 
C 2822 178 2650 128 2566 128 
C 2304 128 2304 458 2304 738 
L 2304 1653 
z
M 1965 870 
C 1965 317 1568 38 1216 38 
C 896 38 646 275 646 570 
C 646 761 730 1100 1101 1305 
C 1408 1478 1760 1504 1965 1504 
L 1965 870 
z
" transform="scale(0.015625)"/>
       <path id="CMR17-75" d="M 1882 2693 
L 1882 2528 
C 2259 2528 2317 2489 2317 2186 
L 2317 1032 
C 2317 500 2029 38 1555 38 
C 1030 38 986 348 986 678 
L 986 2763 
L 211 2693 
L 211 2528 
C 467 2528 640 2528 646 2274 
L 646 1058 
C 646 633 646 361 813 183 
C 896 101 1056 -64 1517 -64 
C 2061 -64 2272 377 2323 506 
L 2330 506 
L 2330 -63 
L 3091 -63 
L 3091 128 
C 2714 128 2656 166 2656 473 
L 2656 2763 
L 1882 2693 
z
" transform="scale(0.015625)"/>
       <path id="CMR17-6e" d="M 2656 1933 
C 2656 2259 2592 2790 1837 2790 
C 1331 2790 1069 2400 973 2144 
L 966 2144 
L 966 2790 
L 211 2720 
L 211 2554 
C 589 2554 646 2515 646 2208 
L 646 428 
C 646 184 621 153 211 153 
L 211 -13 
C 365 0 646 0 813 0 
C 979 0 1267 0 1421 -13 
L 1421 153 
C 1011 153 986 178 986 428 
L 986 1658 
C 986 2247 1344 2688 1792 2688 
C 2266 2688 2317 2266 2317 1958 
L 2317 428 
C 2317 184 2291 153 1882 153 
L 1882 -13 
C 2035 0 2317 0 2483 0 
C 2650 0 2938 0 3091 -13 
L 3091 153 
C 2682 153 2656 178 2656 428 
L 2656 1933 
z
" transform="scale(0.015625)"/>
       <path id="CMR17-69" d="M 992 3909 
C 992 4049 877 4170 730 4170 
C 589 4170 467 4056 467 3909 
C 467 3769 582 3648 730 3648 
C 870 3648 992 3763 992 3909 
z
M 243 2706 
L 243 2541 
C 602 2541 653 2502 653 2197 
L 653 427 
C 653 184 627 153 218 153 
L 218 -13 
C 371 0 646 0 806 0 
C 960 0 1222 0 1370 -13 
L 1370 153 
C 992 153 979 191 979 420 
L 979 2776 
L 243 2706 
z
" transform="scale(0.015625)"/>
       <path id="CMR17-74" d="M 966 2560 
L 1862 2560 
L 1862 2725 
L 966 2725 
L 966 3904 
L 851 3904 
C 838 3245 614 2668 70 2668 
L 70 2560 
L 627 2560 
L 627 771 
C 627 650 627 -64 1370 -64 
C 1747 -64 1965 306 1965 777 
L 1965 1140 
L 1850 1140 
L 1850 783 
C 1850 344 1677 51 1408 51 
C 1222 51 966 178 966 758 
L 966 2560 
z
" transform="scale(0.015625)"/>
       <path id="CMR17-73" d="M 1978 2697 
C 1978 2813 1971 2819 1933 2819 
C 1907 2819 1901 2813 1824 2717 
C 1805 2691 1747 2626 1728 2601 
C 1523 2819 1235 2819 1126 2819 
C 416 2819 160 2447 160 2076 
C 160 1498 813 1365 998 1325 
C 1402 1243 1542 1217 1677 1101 
C 1760 1025 1901 884 1901 654 
C 1901 384 1747 38 1158 38 
C 602 38 403 460 288 1021 
C 269 1110 269 1117 218 1117 
C 166 1117 160 1110 160 983 
L 160 63 
C 160 -51 166 -58 205 -58 
C 237 -58 243 -51 275 0 
C 314 57 410 211 448 276 
C 576 103 800 -64 1158 -64 
C 1792 -64 2131 283 2131 784 
C 2131 1112 1958 1285 1875 1362 
C 1683 1561 1459 1606 1190 1657 
C 838 1735 390 1825 390 2217 
C 390 2383 480 2737 1126 2737 
C 1811 2737 1850 2094 1862 1888 
C 1869 1856 1901 1849 1920 1849 
C 1978 1849 1978 1869 1978 1978 
L 1978 2697 
z
" transform="scale(0.015625)"/>
       <path id="CMR17-29" d="M 1683 1581 
C 1683 2040 1638 2817 1254 3639 
C 947 4303 422 4768 346 4768 
C 326 4768 301 4761 301 4729 
C 301 4717 307 4710 314 4697 
C 621 4378 1402 3568 1402 1584 
C 1402 -407 627 -1217 314 -1537 
C 307 -1549 301 -1556 301 -1568 
C 301 -1600 326 -1600 346 -1600 
C 416 -1600 960 -1128 1274 -426 
C 1594 281 1683 969 1683 1581 
z
" transform="scale(0.015625)"/>
      </defs>
      <use xlink:href="#CMR17-70" transform="scale(0.996264)"/>
      <use xlink:href="#CMR17-72" transform="translate(50.89537 0) scale(0.996264)"/>
      <use xlink:href="#CMR17-6f" transform="translate(86.176138 0) scale(0.996264)"/>
      <use xlink:href="#CMR17-62" transform="translate(131.866615 0) scale(0.996264)"/>
      <use xlink:href="#CMR17-2e" transform="translate(182.761984 0) scale(0.996264)"/>
      <use xlink:href="#CMR17-28" transform="translate(237.709009 0) scale(0.996264)"/>
      <use xlink:href="#CMR17-61" transform="translate(272.989777 0) scale(0.996264)"/>
      <use xlink:href="#CMR17-72" transform="translate(318.680254 0) scale(0.996264)"/>
      <use xlink:href="#CMR17-62" transform="translate(353.961022 0) scale(0.996264)"/>
      <use xlink:href="#CMR17-2e" transform="translate(404.856392 0) scale(0.996264)"/>
      <use xlink:href="#CMR17-75" transform="translate(459.803417 0) scale(0.996264)"/>
      <use xlink:href="#CMR17-6e" transform="translate(510.698786 0) scale(0.996264)"/>
      <use xlink:href="#CMR17-69" transform="translate(561.594156 0) scale(0.996264)"/>
      <use xlink:href="#CMR17-74" transform="translate(586.465215 0) scale(0.996264)"/>
      <use xlink:href="#CMR17-73" transform="translate(621.745982 0) scale(0.996264)"/>
      <use xlink:href="#CMR17-29" transform="translate(657.54732 0) scale(0.996264)"/>
     </g>
    </g>
   </g>
   <g id="matplotlib.axis_2">
    <g id="ytick_1">
     <g id="line2d_3">
      <defs>
       <path id="m8dd7bece18" d="M 0 0 
L -3.5 0 
" style="stroke: #000000; stroke-width: 0.8"/>
      </defs>
      <g>
       <use xlink:href="#m8dd7bece18" x="31.844295" y="106.418189" style="stroke: #000000; stroke-width: 0.8"/>
      </g>
     </g>
     <g id="text_4">
      <!-- $\mathdefault{0}$ -->
      <g transform="translate(20.610112 109.18559) scale(0.08 -0.08)">
       <use xlink:href="#CMR17-30" transform="scale(0.996264)"/>
      </g>
     </g>
    </g>
    <g id="ytick_2">
     <g id="line2d_4">
      <g>
       <use xlink:href="#m8dd7bece18" x="31.844295" y="82.638816" style="stroke: #000000; stroke-width: 0.8"/>
      </g>
     </g>
     <g id="text_5">
      <!-- $\mathdefault{1}$ -->
      <g transform="translate(20.610112 85.406217) scale(0.08 -0.08)">
       <defs>
        <path id="CMR17-31" d="M 1702 4058 
C 1702 4192 1696 4192 1606 4192 
C 1357 3916 979 3827 621 3827 
C 602 3827 570 3827 563 3808 
C 557 3795 557 3782 557 3648 
C 755 3648 1088 3686 1344 3839 
L 1344 461 
C 1344 236 1331 160 781 160 
L 589 160 
L 589 0 
C 896 0 1216 0 1523 0 
C 1830 0 2150 0 2458 0 
L 2458 160 
L 2266 160 
C 1715 160 1702 230 1702 458 
L 1702 4058 
z
" transform="scale(0.015625)"/>
       </defs>
       <use xlink:href="#CMR17-31" transform="scale(0.996264)"/>
      </g>
     </g>
    </g>
    <g id="ytick_3">
     <g id="line2d_5">
      <g>
       <use xlink:href="#m8dd7bece18" x="31.844295" y="58.859442" style="stroke: #000000; stroke-width: 0.8"/>
      </g>
     </g>
     <g id="text_6">
      <!-- $\mathdefault{2}$ -->
      <g transform="translate(20.610112 61.626843) scale(0.08 -0.08)">
       <defs>
        <path id="CMR17-32" d="M 2669 989 
L 2554 989 
C 2490 536 2438 459 2413 420 
C 2381 369 1920 369 1830 369 
L 602 369 
C 832 619 1280 1072 1824 1597 
C 2214 1967 2669 2402 2669 3035 
C 2669 3790 2067 4224 1395 4224 
C 691 4224 262 3604 262 3030 
C 262 2780 448 2748 525 2748 
C 589 2748 781 2787 781 3010 
C 781 3207 614 3264 525 3264 
C 486 3264 448 3258 422 3245 
C 544 3790 915 4058 1306 4058 
C 1862 4058 2227 3617 2227 3035 
C 2227 2479 1901 2000 1536 1584 
L 262 146 
L 262 0 
L 2515 0 
L 2669 989 
z
" transform="scale(0.015625)"/>
       </defs>
       <use xlink:href="#CMR17-32" transform="scale(0.996264)"/>
      </g>
     </g>
    </g>
    <g id="ytick_4">
     <g id="line2d_6">
      <g>
       <use xlink:href="#m8dd7bece18" x="31.844295" y="35.080069" style="stroke: #000000; stroke-width: 0.8"/>
      </g>
     </g>
     <g id="text_7">
      <!-- $\mathdefault{3}$ -->
      <g transform="translate(20.610112 37.84747) scale(0.08 -0.08)">
       <defs>
        <path id="CMR17-33" d="M 1414 2157 
C 1984 2157 2234 1662 2234 1090 
C 2234 320 1824 25 1453 25 
C 1114 25 563 194 390 693 
C 422 680 454 680 486 680 
C 640 680 755 782 755 948 
C 755 1133 614 1216 486 1216 
C 378 1216 211 1165 211 926 
C 211 335 787 -128 1466 -128 
C 2176 -128 2720 430 2720 1085 
C 2720 1707 2208 2157 1600 2227 
C 2086 2328 2554 2756 2554 3329 
C 2554 3820 2048 4179 1472 4179 
C 890 4179 378 3829 378 3329 
C 378 3110 544 3072 627 3072 
C 762 3072 877 3155 877 3321 
C 877 3486 762 3569 627 3569 
C 602 3569 570 3569 544 3557 
C 730 3959 1235 4032 1459 4032 
C 1683 4032 2106 3925 2106 3320 
C 2106 3143 2080 2828 1862 2550 
C 1670 2304 1453 2304 1242 2284 
C 1210 2284 1062 2269 1037 2269 
C 992 2263 966 2257 966 2208 
C 966 2163 973 2157 1101 2157 
L 1414 2157 
z
" transform="scale(0.015625)"/>
       </defs>
       <use xlink:href="#CMR17-33" transform="scale(0.996264)"/>
      </g>
     </g>
    </g>
    <g id="text_8">
     <!-- $I$ (pA) -->
     <g transform="translate(14.617584 83.124421) rotate(-90) scale(0.08 -0.08)">
      <defs>
       <path id="CMMI12-49" d="M 2355 3880 
C 2413 4103 2426 4167 2893 4167 
C 3034 4167 3085 4167 3085 4288 
C 3085 4352 3014 4352 2995 4352 
C 2880 4352 2739 4352 2624 4352 
L 1837 4352 
C 1709 4352 1562 4352 1434 4352 
C 1382 4352 1312 4352 1312 4231 
C 1312 4167 1363 4167 1491 4167 
C 1888 4167 1888 4116 1888 4046 
C 1888 4002 1875 3963 1862 3906 
L 998 472 
C 941 249 928 185 461 185 
C 320 185 262 185 262 64 
C 262 0 326 0 358 0 
C 474 0 614 0 730 0 
L 1517 0 
C 1645 0 1786 0 1914 0 
C 1965 0 2042 0 2042 115 
C 2042 185 2003 185 1862 185 
C 1466 185 1466 236 1466 312 
C 1466 325 1466 357 1491 459 
L 2355 3880 
z
" transform="scale(0.015625)"/>
       <path id="CMR17-41" d="M 2323 4378 
C 2291 4461 2278 4480 2214 4480 
C 2150 4480 2138 4461 2106 4378 
L 749 566 
C 627 223 371 153 147 153 
L 147 -13 
C 262 0 518 0 640 0 
C 800 0 1056 0 1210 -13 
L 1210 153 
C 909 153 864 361 864 439 
C 864 497 877 530 890 569 
L 1229 1536 
L 2906 1536 
L 3290 442 
C 3322 365 3322 352 3322 327 
C 3322 153 3046 153 2925 153 
L 2925 0 
C 3110 0 3443 0 3642 0 
C 3808 0 4128 0 4282 -13 
L 4282 153 
C 3942 153 3827 153 3744 387 
L 2323 4378 
z
M 2067 3893 
L 2848 1702 
L 1286 1702 
L 2067 3893 
z
" transform="scale(0.015625)"/>
      </defs>
      <use xlink:href="#CMMI12-49" transform="scale(0.996264)"/>
      <use xlink:href="#CMR17-28" transform="translate(80.93248 0) scale(0.996264)"/>
      <use xlink:href="#CMR17-70" transform="translate(116.213248 0) scale(0.996264)"/>
      <use xlink:href="#CMR17-41" transform="translate(167.108618 0) scale(0.996264)"/>
      <use xlink:href="#CMR17-29" transform="translate(236.181048 0) scale(0.996264)"/>
     </g>
    </g>
   </g>
   <g id="patch_38">
    <path d="M 31.844295 108.796126 
L 31.844295 32.702132 
" style="fill: none; stroke: #000000; stroke-width: 0.8; stroke-linejoin: miter; stroke-linecap: square"/>
   </g>
   <g id="patch_39">
    <path d="M 88.358612 108.796126 
L 88.358612 32.702132 
" style="fill: none; stroke: #000000; stroke-width: 0.8; stroke-linejoin: miter; stroke-linecap: square"/>
   </g>
   <g id="patch_40">
    <path d="M 31.844295 108.796126 
L 88.358612 108.796126 
" style="fill: none; stroke: #000000; stroke-width: 0.8; stroke-linejoin: miter; stroke-linecap: square"/>
   </g>
   <g id="patch_41">
    <path d="M 31.844295 32.702132 
L 88.358612 32.702132 
" style="fill: none; stroke: #000000; stroke-width: 0.8; stroke-linejoin: miter; stroke-linecap: square"/>
   </g>
   <g id="text_9">
    <!-- (a) -->
    <g transform="translate(9.238568 37.267771) scale(0.08 -0.08)">
     <use xlink:href="#CMR17-28" transform="scale(0.996264)"/>
     <use xlink:href="#CMR17-61" transform="translate(35.280768 0) scale(0.996264)"/>
     <use xlink:href="#CMR17-29" transform="translate(80.971245 0) scale(0.996264)"/>
    </g>
   </g>
  </g>
  <g id="axes_2">
   <g id="patch_42">
    <path d="M 123.551525 108.796126 
L 293.094475 108.796126 
L 293.094475 32.702132 
L 123.551525 32.702132 
z
" style="fill: #ffffff"/>
   </g>
   <g id="matplotlib.axis_3">
    <g id="xtick_3">
     <g id="line2d_7">
      <g>
       <use xlink:href="#md00553dedd" x="123.551525" y="108.796126" style="stroke: #000000; stroke-width: 0.8"/>
      </g>
     </g>
     <g id="text_10">
      <!-- $\mathdefault{0}$ -->
      <g transform="translate(121.434433 121.330928) scale(0.08 -0.08)">
       <use xlink:href="#CMR17-30" transform="scale(0.996264)"/>
      </g>
     </g>
    </g>
    <g id="xtick_4">
     <g id="line2d_8">
      <g>
       <use xlink:href="#md00553dedd" x="153.197347" y="108.796126" style="stroke: #000000; stroke-width: 0.8"/>
      </g>
     </g>
     <g id="text_11">
      <!-- $\mathdefault{1}$ -->
      <g transform="translate(151.080256 121.330928) scale(0.08 -0.08)">
       <use xlink:href="#CMR17-31" transform="scale(0.996264)"/>
      </g>
     </g>
    </g>
    <g id="xtick_5">
     <g id="line2d_9">
      <g>
       <use xlink:href="#md00553dedd" x="182.84317" y="108.796126" style="stroke: #000000; stroke-width: 0.8"/>
      </g>
     </g>
     <g id="text_12">
      <!-- $\mathdefault{2}$ -->
      <g transform="translate(180.726079 121.330928) scale(0.08 -0.08)">
       <use xlink:href="#CMR17-32" transform="scale(0.996264)"/>
      </g>
     </g>
    </g>
    <g id="xtick_6">
     <g id="line2d_10">
      <g>
       <use xlink:href="#md00553dedd" x="212.488993" y="108.796126" style="stroke: #000000; stroke-width: 0.8"/>
      </g>
     </g>
     <g id="text_13">
      <!-- $\mathdefault{3}$ -->
      <g transform="translate(210.371901 121.330928) scale(0.08 -0.08)">
       <use xlink:href="#CMR17-33" transform="scale(0.996264)"/>
      </g>
     </g>
    </g>
    <g id="xtick_7">
     <g id="line2d_11">
      <g>
       <use xlink:href="#md00553dedd" x="242.134815" y="108.796126" style="stroke: #000000; stroke-width: 0.8"/>
      </g>
     </g>
     <g id="text_14">
      <!-- $\mathdefault{4}$ -->
      <g transform="translate(240.017724 121.330928) scale(0.08 -0.08)">
       <defs>
        <path id="CMR17-34" d="M 2150 4122 
C 2150 4256 2144 4256 2029 4256 
L 128 1254 
L 128 1088 
L 1779 1088 
L 1779 457 
C 1779 224 1766 160 1318 160 
L 1197 160 
L 1197 0 
C 1402 0 1747 0 1965 0 
C 2182 0 2528 0 2733 0 
L 2733 160 
L 2611 160 
C 2163 160 2150 224 2150 457 
L 2150 1088 
L 2803 1088 
L 2803 1254 
L 2150 1254 
L 2150 4122 
z
M 1798 3703 
L 1798 1254 
L 256 1254 
L 1798 3703 
z
" transform="scale(0.015625)"/>
       </defs>
       <use xlink:href="#CMR17-34" transform="scale(0.996264)"/>
      </g>
     </g>
    </g>
    <g id="xtick_8">
     <g id="line2d_12">
      <g>
       <use xlink:href="#md00553dedd" x="271.780638" y="108.796126" style="stroke: #000000; stroke-width: 0.8"/>
      </g>
     </g>
     <g id="text_15">
      <!-- $\mathdefault{5}$ -->
      <g transform="translate(269.663547 121.330928) scale(0.08 -0.08)">
       <use xlink:href="#CMR17-35" transform="scale(0.996264)"/>
      </g>
     </g>
    </g>
    <g id="text_16">
     <!-- time $t$ (s) -->
     <g transform="translate(190.774663 132.858258) scale(0.08 -0.08)">
      <defs>
       <path id="CMR17-6d" d="M 4326 1933 
C 4326 2252 4269 2790 3507 2790 
C 3072 2790 2771 2496 2656 2151 
L 2650 2151 
C 2573 2676 2195 2790 1837 2790 
C 1331 2790 1069 2400 973 2144 
L 966 2144 
L 966 2790 
L 211 2720 
L 211 2554 
C 589 2554 646 2515 646 2208 
L 646 428 
C 646 184 621 153 211 153 
L 211 -13 
C 365 0 646 0 813 0 
C 979 0 1267 0 1421 -13 
L 1421 153 
C 1011 153 986 178 986 428 
L 986 1658 
C 986 2247 1344 2688 1792 2688 
C 2266 2688 2317 2266 2317 1958 
L 2317 428 
C 2317 184 2291 153 1882 153 
L 1882 -13 
C 2035 0 2317 0 2483 0 
C 2650 0 2938 0 3091 -13 
L 3091 153 
C 2682 153 2656 178 2656 428 
L 2656 1658 
C 2656 2247 3014 2688 3462 2688 
C 3936 2688 3987 2266 3987 1958 
L 3987 428 
C 3987 184 3962 153 3552 153 
L 3552 -13 
C 3706 0 3987 0 4154 0 
C 4320 0 4608 0 4762 -13 
L 4762 153 
C 4352 153 4326 178 4326 428 
L 4326 1933 
z
" transform="scale(0.015625)"/>
       <path id="CMR17-65" d="M 2438 1472 
C 2464 1498 2464 1511 2464 1576 
C 2464 2238 2118 2816 1389 2816 
C 710 2816 173 2169 173 1383 
C 173 551 781 -64 1459 -64 
C 2176 -64 2458 607 2458 740 
C 2458 784 2419 784 2406 784 
C 2362 784 2355 771 2330 696 
C 2189 265 1837 51 1504 51 
C 1229 51 954 203 781 480 
C 582 803 582 1176 582 1472 
L 2438 1472 
z
M 589 1568 
C 634 2505 1126 2714 1382 2714 
C 1818 2714 2112 2297 2118 1568 
L 589 1568 
z
" transform="scale(0.015625)"/>
       <path id="CMMI12-74" d="M 1286 2566 
L 1875 2566 
C 1997 2566 2061 2566 2061 2681 
C 2061 2752 2022 2752 1894 2752 
L 1331 2752 
L 1568 3692 
C 1594 3781 1594 3794 1594 3840 
C 1594 3943 1510 4000 1427 4000 
C 1376 4000 1229 3981 1178 3775 
L 928 2752 
L 326 2752 
C 198 2752 141 2752 141 2630 
C 141 2566 186 2566 307 2566 
L 877 2566 
L 454 881 
C 403 658 384 594 384 511 
C 384 211 595 -64 954 -64 
C 1600 -64 1946 868 1946 912 
C 1946 951 1920 970 1882 970 
C 1869 970 1843 970 1830 944 
C 1824 938 1818 931 1773 829 
C 1638 511 1344 64 973 64 
C 781 64 768 224 768 364 
C 768 370 768 492 787 568 
L 1286 2566 
z
" transform="scale(0.015625)"/>
      </defs>
      <use xlink:href="#CMR17-74" transform="scale(0.996264)"/>
      <use xlink:href="#CMR17-69" transform="translate(35.280768 0) scale(0.996264)"/>
      <use xlink:href="#CMR17-6d" transform="translate(60.151826 0) scale(0.996264)"/>
      <use xlink:href="#CMR17-65" transform="translate(137.071416 0) scale(0.996264)"/>
      <use xlink:href="#CMMI12-74" transform="translate(207.633043 0) scale(0.996264)"/>
      <use xlink:href="#CMR17-28" transform="translate(272.93534 0) scale(0.996264)"/>
      <use xlink:href="#CMR17-73" transform="translate(308.216107 0) scale(0.996264)"/>
      <use xlink:href="#CMR17-29" transform="translate(344.017445 0) scale(0.996264)"/>
     </g>
    </g>
   </g>
   <g id="matplotlib.axis_4">
    <g id="ytick_5">
     <g id="line2d_13">
      <g>
       <use xlink:href="#m8dd7bece18" x="123.551525" y="106.418189" style="stroke: #000000; stroke-width: 0.8"/>
      </g>
     </g>
    </g>
    <g id="ytick_6">
     <g id="line2d_14">
      <g>
       <use xlink:href="#m8dd7bece18" x="123.551525" y="82.638816" style="stroke: #000000; stroke-width: 0.8"/>
      </g>
     </g>
    </g>
    <g id="ytick_7">
     <g id="line2d_15">
      <g>
       <use xlink:href="#m8dd7bece18" x="123.551525" y="58.859442" style="stroke: #000000; stroke-width: 0.8"/>
      </g>
     </g>
    </g>
    <g id="ytick_8">
     <g id="line2d_16">
      <g>
       <use xlink:href="#m8dd7bece18" x="123.551525" y="35.080069" style="stroke: #000000; stroke-width: 0.8"/>
      </g>
     </g>
    </g>
   </g>
   <g id="line2d_17">
    <path d="M 123.551525 61.832278 
L 124.118558 70.691969 
L 124.685591 72.229867 
L 125.252625 83.420136 
L 125.819658 73.695201 
L 126.386691 71.994019 
L 127.520758 50.302843 
L 128.087791 43.680884 
L 129.221858 78.758278 
L 129.788891 86.84763 
L 130.355924 91.61485 
L 130.922957 86.626421 
L 132.057024 55.665302 
L 132.624057 54.500673 
L 133.758124 83.464091 
L 134.325157 84.666377 
L 134.89219 74.665813 
L 135.459224 60.352288 
L 136.026257 52.761856 
L 136.59329 51.597268 
L 137.160323 52.94672 
L 137.727357 66.960245 
L 138.29439 71.243907 
L 138.861423 83.575736 
L 139.428457 88.286448 
L 139.99549 90.090901 
L 140.562523 81.344242 
L 141.129556 76.011829 
L 141.69659 68.553971 
L 142.263623 67.455655 
L 142.830656 64.836201 
L 143.397689 40.702763 
L 143.964723 48.000882 
L 144.531756 50.540071 
L 145.098789 45.968237 
L 145.665823 43.079429 
L 146.232856 50.669886 
L 146.799889 66.545772 
L 147.366922 71.826552 
L 147.933956 81.628941 
L 148.500989 77.949552 
L 149.068022 72.945094 
L 149.635055 83.692983 
L 150.202089 85.082938 
L 150.769122 82.242286 
L 151.336155 78.673851 
L 151.903189 83.845085 
L 152.470222 77.724867 
L 153.037255 79.692615 
L 153.604288 63.346457 
L 154.171322 77.4639 
L 154.738355 57.748877 
L 155.305388 62.577502 
L 155.872422 66.104073 
L 156.439455 75.251247 
L 157.006488 66.251301 
L 157.573521 83.907876 
L 158.140555 84.221886 
L 158.707588 89.223557 
L 159.841654 66.40133 
L 160.408688 52.618768 
L 160.975721 53.915213 
L 161.542754 62.679349 
L 162.109788 79.421165 
L 162.676821 88.840482 
L 163.243854 86.266381 
L 163.810887 77.840707 
L 164.377921 63.579482 
L 164.944954 43.288719 
L 165.511987 53.12747 
L 166.079021 68.74028 
L 166.646054 87.897782 
L 167.213087 78.503589 
L 168.347154 49.957457 
L 168.914187 60.577666 
L 169.48122 64.191461 
L 170.048253 60.351586 
L 170.615287 73.67985 
L 171.18232 76.097653 
L 171.749353 67.140276 
L 172.316387 69.297798 
L 172.88342 74.114565 
L 173.450453 80.976518 
L 174.017486 74.291798 
L 174.58452 79.242537 
L 175.151553 86.739481 
L 175.718586 88.254336 
L 176.28562 94.633439 
L 176.852653 90.163459 
L 177.419686 83.328026 
L 177.986719 82.076915 
L 178.553753 78.97529 
L 179.120786 84.327949 
L 179.687819 69.136616 
L 180.254852 50.681761 
L 180.821886 85.048055 
L 181.388919 86.130301 
L 181.955952 73.019054 
L 182.522986 68.90356 
L 183.090019 80.283618 
L 183.657052 79.574685 
L 184.224085 76.851949 
L 184.791119 63.906767 
L 185.358152 65.147409 
L 185.925185 71.219487 
L 186.492219 69.46387 
L 187.059252 56.534747 
L 187.626285 56.022569 
L 188.193318 67.414502 
L 188.760352 87.979416 
L 189.327385 78.877606 
L 189.894418 80.226404 
L 190.461451 75.803887 
L 191.028485 64.040048 
L 191.595518 57.958204 
L 192.162551 65.342104 
L 192.729585 57.140415 
L 193.296618 55.952108 
L 193.863651 76.267209 
L 194.430684 71.467194 
L 194.997718 85.128296 
L 196.131784 69.46387 
L 196.698818 66.943495 
L 197.265851 54.753302 
L 197.832884 57.867499 
L 198.966951 73.784513 
L 199.533984 45.620767 
L 200.101017 60.246923 
L 200.66805 67.339137 
L 201.802117 88.887235 
L 202.36915 61.153334 
L 202.936184 48.31628 
L 203.503217 57.755859 
L 204.07025 69.064048 
L 204.637283 89.383345 
L 205.204317 82.068536 
L 205.77135 66.78789 
L 206.338383 57.616999 
L 206.905417 64.839697 
L 207.47245 78.945285 
L 208.039483 70.400992 
L 209.17355 82.740496 
L 209.740583 87.809174 
L 210.307616 64.774807 
L 210.874649 70.658473 
L 211.441683 84.417969 
L 212.008716 83.256848 
L 212.575749 73.574486 
L 213.142783 50.143781 
L 213.709816 49.309894 
L 214.276849 57.471864 
L 215.410916 86.442904 
L 215.977949 85.011068 
L 216.544982 67.353797 
L 217.112016 71.624893 
L 217.679049 72.724596 
L 218.246082 77.073842 
L 218.813115 84.506598 
L 219.380149 85.736757 
L 220.514215 96.477675 
L 221.081248 91.143146 
L 221.648282 75.322417 
L 222.215315 80.074292 
L 222.782348 77.760453 
L 223.349382 90.309997 
L 223.916415 92.180066 
L 224.483448 91.161285 
L 225.050481 58.152896 
L 225.617515 58.981854 
L 226.184548 69.144291 
L 226.751581 63.606726 
L 227.885648 73.433538 
L 228.452681 53.28164 
L 229.019714 60.497428 
L 229.586748 63.346444 
L 230.153781 62.177669 
L 231.287847 74.418097 
L 231.854881 73.338638 
L 232.421914 75.405455 
L 232.988947 70.262836 
L 233.555981 73.868948 
L 234.123014 70.758248 
L 234.690047 80.617158 
L 235.25708 82.116686 
L 235.824114 61.650161 
L 236.391147 62.897787 
L 236.95818 70.777089 
L 237.525214 62.807768 
L 238.092247 73.143955 
L 238.65928 66.954666 
L 239.226313 67.36775 
L 239.793347 55.918597 
L 240.36038 68.776565 
L 240.927413 72.784606 
L 241.494446 77.904898 
L 242.06148 73.300958 
L 242.628513 74.173179 
L 243.195546 86.089836 
L 244.329613 69.081479 
L 244.896646 53.853167 
L 245.463679 66.602981 
L 246.030713 69.665539 
L 246.597746 90.22207 
L 247.164779 83.723661 
L 247.731813 70.339595 
L 248.298846 49.935115 
L 248.865879 41.768979 
L 249.432912 60.311114 
L 250.566979 84.302121 
L 251.134012 85.177144 
L 252.268079 54.337434 
L 252.835112 46.90953 
L 253.969179 80.33596 
L 254.536212 88.18875 
L 255.103245 87.463056 
L 255.670278 70.384239 
L 256.237312 57.666526 
L 256.804345 60.122001 
L 257.371378 78.994126 
L 257.938411 76.473766 
L 258.505445 79.658411 
L 259.072478 92.703368 
L 259.639511 79.012965 
L 260.206545 58.976971 
L 260.773578 50.293077 
L 261.340611 57.134098 
L 261.907644 78.524526 
L 262.474678 92.50384 
L 263.041711 74.386698 
L 263.608744 41.42567 
L 264.175778 56.426552 
L 264.742811 64.05958 
L 265.876877 88.989805 
L 266.443911 90.979872 
L 267.010944 57.496269 
L 267.577977 58.416622 
L 268.14501 80.353402 
L 268.712044 81.037933 
L 269.279077 90.051814 
L 269.84611 75.639209 
L 270.413144 84.715205 
L 270.980177 81.252833 
L 271.54721 84.514946 
L 272.681277 72.665278 
L 273.24831 58.824843 
L 274.382377 59.531694 
L 274.94941 63.782567 
L 275.516443 66.852787 
L 276.083476 66.45855 
L 276.65051 72.802044 
L 277.217543 76.998492 
L 278.351609 50.445189 
L 278.918643 57.831203 
L 279.485676 68.392083 
L 280.052709 83.875778 
L 280.619743 88.626277 
L 281.186776 72.906024 
L 282.320842 48.404932 
L 282.887876 69.617382 
L 283.454909 77.992117 
L 284.021942 90.636554 
L 284.588976 69.996279 
L 285.723042 42.983124 
L 286.857109 79.733072 
L 287.424142 68.607703 
L 287.991175 54.514667 
L 288.558208 48.603013 
L 289.125242 61.527338 
L 289.692275 79.072283 
L 290.259308 85.883294 
L 290.826342 66.817206 
L 291.393375 57.215079 
L 291.960408 84.026503 
L 292.527441 85.620235 
L 293.094475 65.396524 
L 293.094475 65.396524 
" clip-path="url(#p80ce43cb48)" style="fill: none; stroke: #c71585; stroke-linecap: square"/>
   </g>
   <g id="patch_43">
    <path d="M 123.551525 108.796126 
L 123.551525 32.702132 
" style="fill: none; stroke: #000000; stroke-width: 0.8; stroke-linejoin: miter; stroke-linecap: square"/>
   </g>
   <g id="patch_44">
    <path d="M 293.094475 108.796126 
L 293.094475 32.702132 
" style="fill: none; stroke: #000000; stroke-width: 0.8; stroke-linejoin: miter; stroke-linecap: square"/>
   </g>
   <g id="patch_45">
    <path d="M 123.551525 108.796126 
L 293.094475 108.796126 
" style="fill: none; stroke: #000000; stroke-width: 0.8; stroke-linejoin: miter; stroke-linecap: square"/>
   </g>
   <g id="patch_46">
    <path d="M 123.551525 32.702132 
L 293.094475 32.702132 
" style="fill: none; stroke: #000000; stroke-width: 0.8; stroke-linejoin: miter; stroke-linecap: square"/>
   </g>
   <g id="text_17">
    <!-- (b) -->
    <g transform="translate(106.59723 37.267771) scale(0.08 -0.08)">
     <use xlink:href="#CMR17-28" transform="scale(0.996264)"/>
     <use xlink:href="#CMR17-62" transform="translate(35.280768 0) scale(0.996264)"/>
     <use xlink:href="#CMR17-29" transform="translate(86.176138 0) scale(0.996264)"/>
    </g>
   </g>
  </g>
  <g id="axes_3">
   <g id="patch_47">
    <path d="M 328.287388 108.796126 
L 497.830338 108.796126 
L 497.830338 32.702132 
L 328.287388 32.702132 
z
" style="fill: #ffffff"/>
   </g>
   <g id="matplotlib.axis_5">
    <g id="xtick_9">
     <g id="line2d_18">
      <g>
       <use xlink:href="#md00553dedd" x="334.725326" y="108.796126" style="stroke: #000000; stroke-width: 0.8"/>
      </g>
     </g>
     <g id="text_18">
      <!-- $\mathdefault{0.10}$ -->
      <g transform="translate(327.19789 121.330928) scale(0.08 -0.08)">
       <use xlink:href="#CMR17-30" transform="scale(0.996264)"/>
       <use xlink:href="#CMMI12-3a" transform="translate(45.690477 0) scale(0.996264)"/>
       <use xlink:href="#CMR17-31" transform="translate(72.787654 0) scale(0.996264)"/>
       <use xlink:href="#CMR17-30" transform="translate(118.478131 0) scale(0.996264)"/>
      </g>
     </g>
    </g>
    <g id="xtick_10">
     <g id="line2d_19">
      <g>
       <use xlink:href="#md00553dedd" x="366.439309" y="108.796126" style="stroke: #000000; stroke-width: 0.8"/>
      </g>
     </g>
     <g id="text_19">
      <!-- $\mathdefault{0.15}$ -->
      <g transform="translate(358.911873 121.330928) scale(0.08 -0.08)">
       <use xlink:href="#CMR17-30" transform="scale(0.996264)"/>
       <use xlink:href="#CMMI12-3a" transform="translate(45.690477 0) scale(0.996264)"/>
       <use xlink:href="#CMR17-31" transform="translate(72.787654 0) scale(0.996264)"/>
       <use xlink:href="#CMR17-35" transform="translate(118.478131 0) scale(0.996264)"/>
      </g>
     </g>
    </g>
    <g id="xtick_11">
     <g id="line2d_20">
      <g>
       <use xlink:href="#md00553dedd" x="398.153291" y="108.796126" style="stroke: #000000; stroke-width: 0.8"/>
      </g>
     </g>
     <g id="text_20">
      <!-- $\mathdefault{0.20}$ -->
      <g transform="translate(390.625855 121.330928) scale(0.08 -0.08)">
       <use xlink:href="#CMR17-30" transform="scale(0.996264)"/>
       <use xlink:href="#CMMI12-3a" transform="translate(45.690477 0) scale(0.996264)"/>
       <use xlink:href="#CMR17-32" transform="translate(72.787654 0) scale(0.996264)"/>
       <use xlink:href="#CMR17-30" transform="translate(118.478131 0) scale(0.996264)"/>
      </g>
     </g>
    </g>
    <g id="xtick_12">
     <g id="line2d_21">
      <g>
       <use xlink:href="#md00553dedd" x="429.867274" y="108.796126" style="stroke: #000000; stroke-width: 0.8"/>
      </g>
     </g>
     <g id="text_21">
      <!-- $\mathdefault{0.25}$ -->
      <g transform="translate(422.339837 121.330928) scale(0.08 -0.08)">
       <use xlink:href="#CMR17-30" transform="scale(0.996264)"/>
       <use xlink:href="#CMMI12-3a" transform="translate(45.690477 0) scale(0.996264)"/>
       <use xlink:href="#CMR17-32" transform="translate(72.787654 0) scale(0.996264)"/>
       <use xlink:href="#CMR17-35" transform="translate(118.478131 0) scale(0.996264)"/>
      </g>
     </g>
    </g>
    <g id="xtick_13">
     <g id="line2d_22">
      <g>
       <use xlink:href="#md00553dedd" x="461.581256" y="108.796126" style="stroke: #000000; stroke-width: 0.8"/>
      </g>
     </g>
     <g id="text_22">
      <!-- $\mathdefault{0.30}$ -->
      <g transform="translate(454.05382 121.330928) scale(0.08 -0.08)">
       <use xlink:href="#CMR17-30" transform="scale(0.996264)"/>
       <use xlink:href="#CMMI12-3a" transform="translate(45.690477 0) scale(0.996264)"/>
       <use xlink:href="#CMR17-33" transform="translate(72.787654 0) scale(0.996264)"/>
       <use xlink:href="#CMR17-30" transform="translate(118.478131 0) scale(0.996264)"/>
      </g>
     </g>
    </g>
    <g id="xtick_14">
     <g id="line2d_23">
      <g>
       <use xlink:href="#md00553dedd" x="493.295238" y="108.796126" style="stroke: #000000; stroke-width: 0.8"/>
      </g>
     </g>
     <g id="text_23">
      <!-- $\mathdefault{0.35}$ -->
      <g transform="translate(485.767802 121.330928) scale(0.08 -0.08)">
       <use xlink:href="#CMR17-30" transform="scale(0.996264)"/>
       <use xlink:href="#CMMI12-3a" transform="translate(45.690477 0) scale(0.996264)"/>
       <use xlink:href="#CMR17-33" transform="translate(72.787654 0) scale(0.996264)"/>
       <use xlink:href="#CMR17-35" transform="translate(118.478131 0) scale(0.996264)"/>
      </g>
     </g>
    </g>
    <g id="text_24">
     <!-- bias $V_{\rm DQD}$ (mV) -->
     <g transform="translate(381.943376 132.858258) scale(0.08 -0.08)">
      <defs>
       <path id="CMMI12-56" d="M 3962 3640 
C 4179 3984 4378 4136 4704 4162 
C 4768 4168 4819 4168 4819 4282 
C 4819 4308 4806 4346 4749 4346 
C 4634 4346 4358 4346 4243 4346 
C 4058 4346 3866 4346 3686 4346 
C 3635 4346 3571 4346 3571 4226 
C 3571 4168 3629 4162 3654 4162 
C 3891 4143 3917 4029 3917 3952 
C 3917 3857 3827 3710 3821 3704 
L 1811 540 
L 1363 3969 
C 1363 4160 1696 4160 1766 4160 
C 1862 4160 1920 4160 1920 4282 
C 1920 4346 1850 4346 1830 4346 
C 1722 4346 1594 4346 1485 4346 
L 1126 4346 
C 659 4346 467 4346 461 4346 
C 422 4346 346 4346 346 4230 
C 346 4160 390 4160 493 4160 
C 819 4160 838 4102 858 3944 
L 1370 24 
C 1389 -109 1389 -128 1478 -128 
C 1555 -128 1587 -109 1651 -8 
L 3962 3640 
z
" transform="scale(0.015625)"/>
       <path id="CMR17-44" d="M 333 4352 
L 333 4186 
C 774 4186 845 4186 845 3900 
L 845 452 
C 845 166 774 166 333 166 
L 333 0 
L 2368 0 
C 3398 0 4224 943 4224 2141 
C 4224 3346 3411 4352 2368 4352 
L 333 4352 
z
M 1523 166 
C 1267 166 1254 197 1254 414 
L 1254 3938 
C 1254 4155 1267 4186 1523 4186 
L 2240 4186 
C 2771 4186 3750 3874 3750 2141 
C 3750 1242 3488 879 3366 707 
C 3213 510 2848 166 2240 166 
L 1523 166 
z
" transform="scale(0.015625)"/>
       <path id="CMR17-51" d="M 3027 83 
C 3789 408 4307 1236 4307 2193 
C 4307 3499 3366 4480 2304 4480 
C 1216 4480 294 3488 294 2199 
C 294 928 1216 -64 2304 -64 
C 2451 -64 2656 -45 2899 38 
C 3008 -747 3078 -1216 3629 -1216 
C 4307 -1216 4339 -213 4339 -33 
C 4339 32 4339 76 4294 76 
C 4262 76 4256 31 4256 18 
C 4211 -603 3866 -732 3661 -732 
C 3283 -732 3149 -394 3027 83 
z
M 1958 100 
C 1293 310 768 1017 768 2199 
C 768 3711 1606 4365 2298 4365 
C 3014 4365 3834 3686 3834 2198 
C 3834 1124 3405 527 2976 254 
C 2880 579 2726 960 2310 960 
C 2003 960 1830 692 1830 450 
C 1830 304 1888 183 1958 100 
z
M 2874 192 
C 2618 57 2413 57 2304 57 
C 2016 57 1933 315 1933 454 
C 1933 650 2067 858 2310 858 
C 2720 858 2822 493 2874 192 
z
" transform="scale(0.015625)"/>
       <path id="CMR17-56" d="M 3776 3745 
C 3834 3886 3936 4160 4365 4160 
L 4365 4332 
C 4218 4319 4051 4319 3891 4319 
C 3738 4319 3475 4319 3328 4332 
L 3328 4160 
C 3648 4160 3661 3936 3661 3898 
C 3661 3827 3642 3783 3622 3732 
L 2362 446 
L 1043 3886 
C 1024 3931 1011 3963 1011 3994 
C 1011 4160 1267 4160 1402 4160 
L 1402 4319 
C 1197 4319 896 4319 685 4319 
C 518 4319 218 4319 64 4332 
L 64 4160 
C 435 4160 506 4135 582 3931 
L 2106 -26 
C 2138 -115 2144 -128 2214 -128 
C 2285 -128 2291 -115 2323 -26 
L 3776 3745 
z
" transform="scale(0.015625)"/>
      </defs>
      <use xlink:href="#CMR17-62" transform="scale(0.996264)"/>
      <use xlink:href="#CMR17-69" transform="translate(50.89537 0) scale(0.996264)"/>
      <use xlink:href="#CMR17-61" transform="translate(75.766428 0) scale(0.996264)"/>
      <use xlink:href="#CMR17-73" transform="translate(121.456905 0) scale(0.996264)"/>
      <use xlink:href="#CMMI12-56" transform="translate(187.334209 0) scale(0.996264)"/>
      <use xlink:href="#CMR17-44" transform="translate(244.203788 -14.943915) scale(0.697382)"/>
      <use xlink:href="#CMR17-51" transform="translate(293.479059 -14.943915) scale(0.697382)"/>
      <use xlink:href="#CMR17-44" transform="translate(343.67919 -14.943915) scale(0.697382)"/>
      <use xlink:href="#CMR17-28" transform="translate(423.528559 0) scale(0.996264)"/>
      <use xlink:href="#CMR17-6d" transform="translate(458.809326 0) scale(0.996264)"/>
      <use xlink:href="#CMR17-56" transform="translate(535.728916 0) scale(0.996264)"/>
      <use xlink:href="#CMR17-29" transform="translate(604.801346 0) scale(0.996264)"/>
     </g>
    </g>
   </g>
   <g id="matplotlib.axis_6">
    <g id="ytick_9">
     <g id="line2d_24">
      <g>
       <use xlink:href="#m8dd7bece18" x="328.287388" y="106.149285" style="stroke: #000000; stroke-width: 0.8"/>
      </g>
     </g>
     <g id="text_25">
      <!-- $\mathdefault{0}$ -->
      <g transform="translate(317.053205 108.916686) scale(0.08 -0.08)">
       <use xlink:href="#CMR17-30" transform="scale(0.996264)"/>
      </g>
     </g>
    </g>
    <g id="ytick_10">
     <g id="line2d_25">
      <g>
       <use xlink:href="#m8dd7bece18" x="328.287388" y="90.565755" style="stroke: #000000; stroke-width: 0.8"/>
      </g>
     </g>
     <g id="text_26">
      <!-- $\mathdefault{5}$ -->
      <g transform="translate(317.053205 93.333156) scale(0.08 -0.08)">
       <use xlink:href="#CMR17-35" transform="scale(0.996264)"/>
      </g>
     </g>
    </g>
    <g id="ytick_11">
     <g id="line2d_26">
      <g>
       <use xlink:href="#m8dd7bece18" x="328.287388" y="74.982226" style="stroke: #000000; stroke-width: 0.8"/>
      </g>
     </g>
     <g id="text_27">
      <!-- $\mathdefault{10}$ -->
      <g transform="translate(312.819022 77.749626) scale(0.08 -0.08)">
       <use xlink:href="#CMR17-31" transform="scale(0.996264)"/>
       <use xlink:href="#CMR17-30" transform="translate(45.690477 0) scale(0.996264)"/>
      </g>
     </g>
    </g>
    <g id="ytick_12">
     <g id="line2d_27">
      <g>
       <use xlink:href="#m8dd7bece18" x="328.287388" y="59.398696" style="stroke: #000000; stroke-width: 0.8"/>
      </g>
     </g>
     <g id="text_28">
      <!-- $\mathdefault{15}$ -->
      <g transform="translate(312.819022 62.166097) scale(0.08 -0.08)">
       <use xlink:href="#CMR17-31" transform="scale(0.996264)"/>
       <use xlink:href="#CMR17-35" transform="translate(45.690477 0) scale(0.996264)"/>
      </g>
     </g>
    </g>
    <g id="text_29">
     <!-- SNR -->
     <g transform="translate(307.269276 79.387694) rotate(-90) scale(0.08 -0.08)">
      <defs>
       <path id="CMR17-53" d="M 2803 4290 
C 2803 4404 2797 4411 2758 4411 
C 2720 4411 2707 4385 2682 4328 
L 2490 3907 
C 2246 4257 1875 4416 1472 4416 
C 819 4416 294 3901 294 3253 
C 294 3056 339 2776 557 2510 
C 794 2218 1018 2167 1530 2033 
C 1722 1982 2042 1899 2106 1874 
C 2470 1722 2662 1341 2662 985 
C 2662 527 2336 38 1779 38 
C 1094 38 454 419 410 1311 
C 403 1413 397 1419 352 1419 
C 301 1419 294 1413 294 1285 
L 294 -1 
C 294 -115 301 -122 339 -122 
C 384 -122 397 -90 486 108 
C 493 127 493 140 614 381 
C 934 -39 1472 -128 1779 -128 
C 2477 -128 2970 451 2970 1124 
C 2970 1454 2848 1708 2778 1823 
C 2509 2230 2221 2306 1914 2382 
C 1869 2402 1856 2402 1498 2490 
C 1152 2579 1005 2624 845 2796 
C 666 2992 602 3196 602 3399 
C 602 3812 934 4263 1478 4263 
C 2157 4263 2579 3786 2675 2993 
C 2694 2878 2701 2872 2746 2872 
C 2803 2872 2803 2891 2803 2999 
L 2803 4290 
z
" transform="scale(0.015625)"/>
       <path id="CMR17-4e" d="M 1312 4250 
C 1267 4320 1261 4320 1139 4320 
L 326 4320 
L 326 4160 
L 448 4160 
C 704 4160 819 4129 838 4122 
L 838 610 
C 838 451 838 153 326 153 
L 326 -13 
C 474 0 742 0 902 0 
C 1062 0 1331 0 1478 -13 
L 1478 153 
C 966 153 966 451 966 610 
L 966 4033 
C 1011 3995 1011 3982 1056 3919 
L 3430 76 
C 3475 0 3494 0 3526 0 
C 3590 0 3590 19 3590 139 
L 3590 3705 
C 3590 3863 3590 4160 4102 4160 
L 4102 4326 
C 3955 4320 3686 4320 3526 4320 
C 3366 4320 3098 4320 2950 4326 
L 2950 4160 
C 3462 4160 3462 3862 3462 3703 
L 3462 763 
L 1312 4250 
z
" transform="scale(0.015625)"/>
       <path id="CMR17-52" d="M 2509 2146 
C 3117 2268 3629 2676 3629 3186 
C 3629 3785 2950 4326 2054 4326 
L 333 4326 
L 333 4160 
C 774 4160 845 4160 845 3873 
L 845 415 
C 845 128 774 128 333 128 
L 333 -26 
C 518 -26 851 -26 1050 -26 
C 1248 -26 1581 -26 1766 -26 
L 1766 128 
C 1325 128 1254 128 1254 417 
L 1254 2112 
L 2003 2112 
C 2368 2112 2573 1964 2662 1881 
C 2918 1632 2918 1459 2918 1024 
C 2918 595 2918 377 3110 160 
C 3354 -102 3680 -128 3821 -128 
C 4294 -128 4365 396 4365 503 
C 4365 540 4365 585 4307 585 
C 4256 585 4250 547 4250 522 
C 4218 112 4032 -26 3834 -26 
C 3482 -26 3443 375 3405 764 
C 3386 898 3373 993 3360 1133 
C 3322 1452 3270 1917 2509 2146 
z
M 1984 2214 
L 1254 2214 
L 1254 3913 
C 1254 4129 1267 4160 1523 4160 
L 1990 4160 
C 2522 4160 3142 3977 3142 3190 
C 3142 2372 2464 2214 1984 2214 
z
" transform="scale(0.015625)"/>
      </defs>
      <use xlink:href="#CMR17-53" transform="scale(0.996264)"/>
      <use xlink:href="#CMR17-4e" transform="translate(50.89537 0) scale(0.996264)"/>
      <use xlink:href="#CMR17-52" transform="translate(119.9678 0) scale(0.996264)"/>
     </g>
    </g>
   </g>
   <g id="LineCollection_1">
    <path d="M 490.12384 86.703263 
L 490.12384 57.538482 
" clip-path="url(#pefe266b2e5)" style="fill: none; stroke: #191970; stroke-width: 1.5"/>
    <path d="M 438.747189 86.007565 
L 438.747189 51.586731 
" clip-path="url(#pefe266b2e5)" style="fill: none; stroke: #191970; stroke-width: 1.5"/>
    <path d="M 387.370537 92.596074 
L 387.370537 80.231236 
" clip-path="url(#pefe266b2e5)" style="fill: none; stroke: #191970; stroke-width: 1.5"/>
    <path d="M 335.993886 97.706616 
L 335.993886 96.682664 
" clip-path="url(#pefe266b2e5)" style="fill: none; stroke: #191970; stroke-width: 1.5"/>
   </g>
   <g id="line2d_28">
    <defs>
     <path id="m1d0f956d1d" d="M 3 0 
L -3 -0 
" style="stroke: #191970"/>
    </defs>
    <g clip-path="url(#pefe266b2e5)">
     <use xlink:href="#m1d0f956d1d" x="490.12384" y="86.703263" style="fill: #191970; stroke: #191970"/>
     <use xlink:href="#m1d0f956d1d" x="438.747189" y="86.007565" style="fill: #191970; stroke: #191970"/>
     <use xlink:href="#m1d0f956d1d" x="387.370537" y="92.596074" style="fill: #191970; stroke: #191970"/>
     <use xlink:href="#m1d0f956d1d" x="335.993886" y="97.706616" style="fill: #191970; stroke: #191970"/>
    </g>
   </g>
   <g id="line2d_29">
    <g clip-path="url(#pefe266b2e5)">
     <use xlink:href="#m1d0f956d1d" x="490.12384" y="57.538482" style="fill: #191970; stroke: #191970"/>
     <use xlink:href="#m1d0f956d1d" x="438.747189" y="51.586731" style="fill: #191970; stroke: #191970"/>
     <use xlink:href="#m1d0f956d1d" x="387.370537" y="80.231236" style="fill: #191970; stroke: #191970"/>
     <use xlink:href="#m1d0f956d1d" x="335.993886" y="96.682664" style="fill: #191970; stroke: #191970"/>
    </g>
   </g>
   <g id="LineCollection_2"/>
   <g id="line2d_30">
    <path d="M 490.12384 72.120872 
L 438.747189 68.797148 
L 387.370537 86.413655 
L 335.993886 97.19464 
" clip-path="url(#pefe266b2e5)" style="fill: none; stroke: #191970; stroke-width: 1.5; stroke-linecap: square"/>
    <defs>
     <path id="mf28419a44b" d="M 0 1.5 
C 0.397805 1.5 0.77937 1.341951 1.06066 1.06066 
C 1.341951 0.77937 1.5 0.397805 1.5 0 
C 1.5 -0.397805 1.341951 -0.77937 1.06066 -1.06066 
C 0.77937 -1.341951 0.397805 -1.5 0 -1.5 
C -0.397805 -1.5 -0.77937 -1.341951 -1.06066 -1.06066 
C -1.341951 -0.77937 -1.5 -0.397805 -1.5 0 
C -1.5 0.397805 -1.341951 0.77937 -1.06066 1.06066 
C -0.77937 1.341951 -0.397805 1.5 0 1.5 
z
" style="stroke: #191970"/>
    </defs>
    <g clip-path="url(#pefe266b2e5)">
     <use xlink:href="#mf28419a44b" x="490.12384" y="72.120872" style="fill: #191970; stroke: #191970"/>
     <use xlink:href="#mf28419a44b" x="438.747189" y="68.797148" style="fill: #191970; stroke: #191970"/>
     <use xlink:href="#mf28419a44b" x="387.370537" y="86.413655" style="fill: #191970; stroke: #191970"/>
     <use xlink:href="#mf28419a44b" x="335.993886" y="97.19464" style="fill: #191970; stroke: #191970"/>
    </g>
   </g>
   <g id="line2d_31"/>
   <g id="patch_48">
    <path d="M 328.287388 108.796126 
L 328.287388 32.702132 
" style="fill: none; stroke: #000000; stroke-width: 0.8; stroke-linejoin: miter; stroke-linecap: square"/>
   </g>
   <g id="patch_49">
    <path d="M 497.830338 108.796126 
L 497.830338 32.702132 
" style="fill: none; stroke: #000000; stroke-width: 0.8; stroke-linejoin: miter; stroke-linecap: square"/>
   </g>
   <g id="patch_50">
    <path d="M 328.287388 108.796126 
L 497.830338 108.796126 
" style="fill: none; stroke: #000000; stroke-width: 0.8; stroke-linejoin: miter; stroke-linecap: square"/>
   </g>
   <g id="patch_51">
    <path d="M 328.287388 32.702132 
L 497.830338 32.702132 
" style="fill: none; stroke: #000000; stroke-width: 0.8; stroke-linejoin: miter; stroke-linecap: square"/>
   </g>
   <g id="text_30">
    <!-- (c) -->
    <g transform="translate(311.333093 37.267771) scale(0.08 -0.08)">
     <defs>
      <path id="CMR17-63" d="M 2234 2240 
C 2112 2240 1933 2240 1933 2017 
C 1933 1838 2080 1787 2163 1787 
C 2208 1787 2394 1807 2394 2024 
C 2394 2467 1958 2803 1466 2803 
C 787 2803 211 2178 211 1363 
C 211 516 813 -64 1466 -64 
C 2259 -64 2458 677 2458 748 
C 2458 774 2451 793 2406 793 
C 2362 793 2355 787 2330 703 
C 2163 180 1798 51 1523 51 
C 1114 51 621 427 621 1369 
C 621 2338 1094 2688 1472 2688 
C 1722 2688 2093 2573 2234 2240 
z
" transform="scale(0.015625)"/>
     </defs>
     <use xlink:href="#CMR17-28" transform="scale(0.996264)"/>
     <use xlink:href="#CMR17-63" transform="translate(35.280768 0) scale(0.996264)"/>
     <use xlink:href="#CMR17-29" transform="translate(75.766428 0) scale(0.996264)"/>
    </g>
   </g>
   <g id="legend_1">
    <g id="patch_52">
     <path d="M 333.887388 61.401623 
L 367.955754 61.401623 
Q 369.555754 61.401623 369.555754 59.801623 
L 369.555754 38.302132 
Q 369.555754 36.702132 367.955754 36.702132 
L 333.887388 36.702132 
Q 332.287388 36.702132 332.287388 38.302132 
L 332.287388 59.801623 
Q 332.287388 61.401623 333.887388 61.401623 
z
" style="fill: #ffffff; opacity: 0.8; stroke: #cccccc; stroke-linejoin: miter"/>
    </g>
    <g id="LineCollection_3">
     <path d="M 343.487388 46.702132 
L 343.487388 38.702132 
" style="fill: none; stroke: #191970; stroke-width: 1.5"/>
    </g>
    <g id="line2d_32">
     <g>
      <use xlink:href="#m1d0f956d1d" x="343.487388" y="46.702132" style="fill: #191970; stroke: #191970"/>
     </g>
    </g>
    <g id="line2d_33">
     <g>
      <use xlink:href="#m1d0f956d1d" x="343.487388" y="38.702132" style="fill: #191970; stroke: #191970"/>
     </g>
    </g>
    <g id="line2d_34">
     <path d="M 335.487388 42.702132 
L 351.487388 42.702132 
" style="fill: none; stroke: #191970; stroke-width: 1.5; stroke-linecap: square"/>
    </g>
    <g id="line2d_35">
     <g>
      <use xlink:href="#mf28419a44b" x="343.487388" y="42.702132" style="fill: #191970; stroke: #191970"/>
     </g>
    </g>
    <g id="text_31">
     <!-- dc -->
     <g transform="translate(357.887388 45.502132) scale(0.08 -0.08)">
      <defs>
       <path id="CMR17-64" d="M 1869 4326 
L 1869 4160 
C 2246 4160 2304 4122 2304 3820 
L 2304 2345 
C 2278 2377 2016 2790 1498 2790 
C 845 2790 211 2208 211 1364 
C 211 525 806 -64 1434 -64 
C 1978 -64 2259 337 2291 380 
L 2291 -63 
L 3066 -63 
L 3066 128 
C 2688 128 2630 166 2630 473 
L 2630 4396 
L 1869 4326 
z
M 2291 755 
C 2291 563 2176 390 2029 262 
C 1811 70 1594 38 1472 38 
C 1286 38 621 134 621 1356 
C 621 2612 1363 2688 1530 2688 
C 1824 2688 2061 2522 2208 2291 
C 2291 2157 2291 2138 2291 2023 
L 2291 755 
z
" transform="scale(0.015625)"/>
      </defs>
      <use xlink:href="#CMR17-64" transform="scale(0.996264)"/>
      <use xlink:href="#CMR17-63" transform="translate(50.89537 0) scale(0.996264)"/>
     </g>
    </g>
    <g id="LineCollection_4">
     <path d="M 343.487388 57.851877 
L 343.487388 49.851877 
" style="fill: none; stroke: #c71585; stroke-width: 1.5"/>
    </g>
    <g id="line2d_36">
     <path d="M 335.487388 53.851877 
L 351.487388 53.851877 
" style="fill: none; stroke: #c71585; stroke-width: 1.5; stroke-linecap: square"/>
    </g>
    <g id="line2d_37">
     <defs>
      <path id="mb07d763aa5" d="M 0 -3 
L -0.673542 -0.927051 
L -2.85317 -0.927051 
L -1.089814 0.354102 
L -1.763356 2.427051 
L -0 1.145898 
L 1.763356 2.427051 
L 1.089814 0.354102 
L 2.85317 -0.927051 
L 0.673542 -0.927051 
z
" style="stroke: #c71585; stroke-linejoin: bevel"/>
     </defs>
     <g>
      <use xlink:href="#mb07d763aa5" x="343.487388" y="53.851877" style="fill: #c71585; stroke: #c71585; stroke-linejoin: bevel"/>
     </g>
    </g>
    <g id="text_32">
     <!-- rf -->
     <g transform="translate(357.887388 56.651877) scale(0.08 -0.08)">
      <defs>
       <path id="CMR17-66" d="M 979 2560 
L 1709 2560 
L 1709 2725 
L 966 2725 
L 966 3494 
C 966 4022 1235 4352 1510 4352 
C 1594 4352 1690 4327 1754 4282 
C 1702 4269 1568 4225 1568 4067 
C 1568 3901 1696 3850 1786 3850 
C 1875 3850 2003 3901 2003 4067 
C 2003 4308 1773 4454 1517 4454 
C 1152 4454 653 4156 653 3481 
L 653 2725 
L 141 2725 
L 141 2560 
L 653 2560 
L 653 427 
C 653 184 627 153 218 153 
L 218 -13 
C 371 0 666 0 832 0 
C 1018 0 1344 0 1517 -13 
L 1517 153 
C 1056 153 979 153 979 439 
L 979 2560 
z
" transform="scale(0.015625)"/>
      </defs>
      <use xlink:href="#CMR17-72" transform="scale(0.996264)"/>
      <use xlink:href="#CMR17-66" transform="translate(35.280768 0) scale(0.996264)"/>
     </g>
    </g>
   </g>
  </g>
  <g id="axes_4">
   <g id="matplotlib.axis_7">
    <g id="xtick_15">
     <g id="line2d_38">
      <defs>
       <path id="m2eaef40dd9" d="M 0 0 
L 0 -3.5 
" style="stroke: #000000; stroke-width: 0.8"/>
      </defs>
      <g>
       <use xlink:href="#m2eaef40dd9" x="335.993886" y="32.702132" style="stroke: #000000; stroke-width: 0.8"/>
      </g>
     </g>
     <g id="text_33">
      <!-- $\mathdefault{128}$ -->
      <g transform="translate(329.642611 24.152386) scale(0.08 -0.08)">
       <defs>
        <path id="CMR17-38" d="M 1741 2264 
C 2144 2467 2554 2773 2554 3263 
C 2554 3841 1990 4179 1472 4179 
C 890 4179 378 3759 378 3180 
C 378 3021 416 2747 666 2505 
C 730 2442 998 2251 1171 2130 
C 883 1983 211 1634 211 934 
C 211 279 838 -128 1459 -128 
C 2144 -128 2720 362 2720 1010 
C 2720 1590 2330 1857 2074 2029 
L 1741 2264 
z
M 902 2822 
C 851 2854 595 3051 595 3351 
C 595 3739 998 4032 1459 4032 
C 1965 4032 2336 3676 2336 3262 
C 2336 2669 1670 2331 1638 2331 
C 1632 2331 1626 2331 1574 2370 
L 902 2822 
z
M 2080 1519 
C 2176 1449 2483 1240 2483 851 
C 2483 381 2010 25 1472 25 
C 890 25 448 438 448 940 
C 448 1443 838 1862 1280 2060 
L 2080 1519 
z
" transform="scale(0.015625)"/>
       </defs>
       <use xlink:href="#CMR17-31" transform="scale(0.996264)"/>
       <use xlink:href="#CMR17-32" transform="translate(45.690477 0) scale(0.996264)"/>
       <use xlink:href="#CMR17-38" transform="translate(91.380954 0) scale(0.996264)"/>
      </g>
     </g>
    </g>
    <g id="xtick_16">
     <g id="line2d_39">
      <g>
       <use xlink:href="#m2eaef40dd9" x="358.012451" y="32.702132" style="stroke: #000000; stroke-width: 0.8"/>
      </g>
     </g>
     <g id="text_34">
      <!-- $\mathdefault{126}$ -->
      <g transform="translate(351.661176 24.152386) scale(0.08 -0.08)">
       <defs>
        <path id="CMR17-36" d="M 678 2176 
C 678 3690 1395 4032 1811 4032 
C 1946 4032 2272 4009 2400 3776 
C 2298 3776 2106 3776 2106 3553 
C 2106 3381 2246 3323 2336 3323 
C 2394 3323 2566 3348 2566 3560 
C 2566 3954 2246 4179 1805 4179 
C 1043 4179 243 3390 243 1984 
C 243 253 966 -128 1478 -128 
C 2099 -128 2688 427 2688 1283 
C 2688 2081 2170 2662 1517 2662 
C 1126 2662 838 2407 678 1960 
L 678 2176 
z
M 1478 25 
C 691 25 691 1200 691 1436 
C 691 1896 909 2560 1504 2560 
C 1613 2560 1926 2560 2138 2120 
C 2253 1870 2253 1609 2253 1289 
C 2253 944 2253 690 2118 434 
C 1978 171 1773 25 1478 25 
z
" transform="scale(0.015625)"/>
       </defs>
       <use xlink:href="#CMR17-31" transform="scale(0.996264)"/>
       <use xlink:href="#CMR17-32" transform="translate(45.690477 0) scale(0.996264)"/>
       <use xlink:href="#CMR17-36" transform="translate(91.380954 0) scale(0.996264)"/>
      </g>
     </g>
    </g>
    <g id="xtick_17">
     <g id="line2d_40">
      <g>
       <use xlink:href="#m2eaef40dd9" x="380.031015" y="32.702132" style="stroke: #000000; stroke-width: 0.8"/>
      </g>
     </g>
     <g id="text_35">
      <!-- $\mathdefault{124}$ -->
      <g transform="translate(373.679741 24.152386) scale(0.08 -0.08)">
       <use xlink:href="#CMR17-31" transform="scale(0.996264)"/>
       <use xlink:href="#CMR17-32" transform="translate(45.690477 0) scale(0.996264)"/>
       <use xlink:href="#CMR17-34" transform="translate(91.380954 0) scale(0.996264)"/>
      </g>
     </g>
    </g>
    <g id="xtick_18">
     <g id="line2d_41">
      <g>
       <use xlink:href="#m2eaef40dd9" x="402.04958" y="32.702132" style="stroke: #000000; stroke-width: 0.8"/>
      </g>
     </g>
     <g id="text_36">
      <!-- $\mathdefault{122}$ -->
      <g transform="translate(395.698306 24.152386) scale(0.08 -0.08)">
       <use xlink:href="#CMR17-31" transform="scale(0.996264)"/>
       <use xlink:href="#CMR17-32" transform="translate(45.690477 0) scale(0.996264)"/>
       <use xlink:href="#CMR17-32" transform="translate(91.380954 0) scale(0.996264)"/>
      </g>
     </g>
    </g>
    <g id="xtick_19">
     <g id="line2d_42">
      <g>
       <use xlink:href="#m2eaef40dd9" x="424.068145" y="32.702132" style="stroke: #000000; stroke-width: 0.8"/>
      </g>
     </g>
     <g id="text_37">
      <!-- $\mathdefault{120}$ -->
      <g transform="translate(417.716871 24.152386) scale(0.08 -0.08)">
       <use xlink:href="#CMR17-31" transform="scale(0.996264)"/>
       <use xlink:href="#CMR17-32" transform="translate(45.690477 0) scale(0.996264)"/>
       <use xlink:href="#CMR17-30" transform="translate(91.380954 0) scale(0.996264)"/>
      </g>
     </g>
    </g>
    <g id="xtick_20">
     <g id="line2d_43">
      <g>
       <use xlink:href="#m2eaef40dd9" x="446.08671" y="32.702132" style="stroke: #000000; stroke-width: 0.8"/>
      </g>
     </g>
     <g id="text_38">
      <!-- $\mathdefault{118}$ -->
      <g transform="translate(439.735436 24.152386) scale(0.08 -0.08)">
       <use xlink:href="#CMR17-31" transform="scale(0.996264)"/>
       <use xlink:href="#CMR17-31" transform="translate(45.690477 0) scale(0.996264)"/>
       <use xlink:href="#CMR17-38" transform="translate(91.380954 0) scale(0.996264)"/>
      </g>
     </g>
    </g>
    <g id="xtick_21">
     <g id="line2d_44">
      <g>
       <use xlink:href="#m2eaef40dd9" x="468.105275" y="32.702132" style="stroke: #000000; stroke-width: 0.8"/>
      </g>
     </g>
     <g id="text_39">
      <!-- $\mathdefault{116}$ -->
      <g transform="translate(461.754001 24.152386) scale(0.08 -0.08)">
       <use xlink:href="#CMR17-31" transform="scale(0.996264)"/>
       <use xlink:href="#CMR17-31" transform="translate(45.690477 0) scale(0.996264)"/>
       <use xlink:href="#CMR17-36" transform="translate(91.380954 0) scale(0.996264)"/>
      </g>
     </g>
    </g>
    <g id="xtick_22">
     <g id="line2d_45">
      <g>
       <use xlink:href="#m2eaef40dd9" x="490.12384" y="32.702132" style="stroke: #000000; stroke-width: 0.8"/>
      </g>
     </g>
     <g id="text_40">
      <!-- $\mathdefault{114}$ -->
      <g transform="translate(483.772566 24.152386) scale(0.08 -0.08)">
       <use xlink:href="#CMR17-31" transform="scale(0.996264)"/>
       <use xlink:href="#CMR17-31" transform="translate(45.690477 0) scale(0.996264)"/>
       <use xlink:href="#CMR17-34" transform="translate(91.380954 0) scale(0.996264)"/>
      </g>
     </g>
    </g>
    <g id="text_41">
     <!-- frequency $f_{\rm rf}$ (MHz) -->
     <g transform="translate(375.136033 14.617584) scale(0.08 -0.08)">
      <defs>
       <path id="CMR17-71" d="M 2630 2802 
L 2528 2802 
L 2336 2172 
C 2189 2509 1920 2802 1491 2802 
C 838 2802 211 2223 211 1383 
C 211 548 800 -38 1440 -38 
C 1933 -38 2208 338 2291 478 
L 2291 -789 
C 2291 -1031 2266 -1063 1856 -1063 
L 1856 -1228 
C 2010 -1216 2291 -1216 2458 -1216 
C 2624 -1216 2912 -1216 3066 -1228 
L 3066 -1063 
C 2656 -1063 2630 -1037 2630 -789 
L 2630 2802 
z
M 2304 886 
C 2304 612 2074 357 2054 338 
C 1856 115 1626 64 1472 64 
C 992 64 621 669 621 1375 
C 621 2121 1043 2688 1536 2688 
C 2048 2688 2304 2108 2304 1777 
L 2304 886 
z
" transform="scale(0.015625)"/>
       <path id="CMR17-79" d="M 2496 2197 
C 2656 2586 2944 2586 3034 2586 
L 3034 2752 
C 2912 2752 2752 2752 2630 2752 
C 2496 2752 2285 2752 2157 2758 
L 2157 2592 
C 2400 2573 2406 2394 2406 2343 
C 2406 2280 2394 2248 2362 2171 
L 1664 449 
L 902 2306 
C 870 2382 870 2426 870 2433 
C 870 2573 1018 2586 1171 2586 
L 1171 2758 
C 1018 2752 742 2752 582 2752 
C 410 2752 205 2752 64 2758 
L 64 2586 
C 410 2586 448 2554 531 2350 
L 1485 15 
C 1197 -738 1030 -1178 627 -1178 
C 557 -1178 397 -1159 282 -1044 
C 429 -1031 493 -942 493 -833 
C 493 -725 416 -629 288 -629 
C 147 -629 77 -725 77 -840 
C 77 -1095 339 -1280 627 -1280 
C 998 -1280 1229 -922 1357 -604 
L 2496 2197 
z
" transform="scale(0.015625)"/>
       <path id="CMMI12-66" d="M 2854 2566 
C 2982 2566 3034 2566 3034 2688 
C 3034 2752 2982 2752 2867 2752 
L 2349 2752 
C 2470 3429 2560 3897 2611 4107 
C 2650 4265 2784 4416 2950 4416 
C 3085 4416 3219 4358 3283 4298 
C 3034 4272 2957 4082 2957 3969 
C 2957 3837 3053 3759 3174 3759 
C 3302 3759 3494 3870 3494 4119 
C 3494 4393 3226 4544 2944 4544 
C 2669 4544 2400 4334 2272 4078 
C 2157 3848 2093 3611 1946 2752 
L 1517 2752 
C 1395 2752 1331 2752 1331 2637 
C 1331 2566 1370 2566 1498 2566 
L 1907 2566 
C 1792 1976 1530 542 1382 -137 
C 1274 -689 1178 -1152 858 -1152 
C 838 -1152 653 -1152 538 -1031 
C 864 -1005 864 -726 864 -720 
C 864 -593 768 -517 646 -517 
C 518 -517 326 -625 326 -867 
C 326 -1140 608 -1280 858 -1280 
C 1510 -1280 1779 -118 1850 199 
C 1965 688 2278 2376 2310 2566 
L 2854 2566 
z
" transform="scale(0.015625)"/>
       <path id="CMR17-4d" d="M 1338 4224 
C 1299 4320 1293 4320 1158 4320 
L 339 4320 
L 339 4160 
C 781 4160 851 4160 851 3875 
L 851 610 
C 851 451 851 153 339 153 
L 339 -13 
C 486 0 755 0 915 0 
C 1075 0 1344 0 1491 -13 
L 1491 153 
C 979 153 979 451 979 610 
L 979 4135 
L 986 4135 
L 2490 89 
C 2515 25 2528 -13 2579 -13 
C 2630 -13 2643 25 2669 89 
L 4186 4166 
L 4192 4166 
L 4192 438 
C 4192 153 4122 153 3680 153 
L 3680 -13 
C 3853 0 4198 0 4384 0 
C 4570 0 4922 0 5094 -13 
L 5094 153 
C 4653 153 4582 153 4582 438 
L 4582 3875 
C 4582 4160 4653 4160 5094 4160 
L 5094 4320 
L 4282 4320 
C 4147 4320 4141 4314 4102 4218 
L 2720 502 
L 1338 4224 
z
" transform="scale(0.015625)"/>
       <path id="CMR17-48" d="M 3590 3905 
C 3590 4192 3661 4192 4102 4192 
L 4102 4352 
C 3917 4352 3578 4352 3379 4352 
C 3181 4352 2842 4352 2656 4352 
L 2656 4192 
C 3098 4192 3168 4192 3168 3904 
L 3168 2341 
L 1261 2341 
L 1261 3904 
C 1261 4192 1331 4192 1773 4192 
L 1773 4352 
C 1587 4352 1248 4352 1050 4352 
C 851 4352 512 4352 326 4352 
L 326 4192 
C 768 4192 838 4192 838 3905 
L 838 447 
C 838 160 768 160 326 160 
L 326 0 
C 512 0 851 0 1050 0 
C 1248 0 1587 0 1773 0 
L 1773 160 
C 1331 160 1261 160 1261 446 
L 1261 2176 
L 3168 2176 
L 3168 446 
C 3168 160 3098 160 2656 160 
L 2656 0 
C 2842 0 3181 0 3379 0 
C 3578 0 3917 0 4102 0 
L 4102 160 
C 3661 160 3590 160 3590 447 
L 3590 3905 
z
" transform="scale(0.015625)"/>
       <path id="CMR17-7a" d="M 2310 2605 
C 2362 2670 2362 2682 2362 2695 
C 2362 2752 2336 2752 2221 2752 
L 275 2752 
L 211 1760 
L 326 1760 
C 371 2381 442 2650 1178 2650 
L 1958 2650 
L 128 96 
C 128 0 134 0 269 0 
L 2291 0 
L 2381 1152 
L 2266 1152 
C 2214 442 2131 115 1350 115 
L 531 115 
L 2310 2605 
z
" transform="scale(0.015625)"/>
      </defs>
      <use xlink:href="#CMR17-66" transform="scale(0.996264)"/>
      <use xlink:href="#CMR17-72" transform="translate(27.473512 0) scale(0.996264)"/>
      <use xlink:href="#CMR17-65" transform="translate(62.75428 0) scale(0.996264)"/>
      <use xlink:href="#CMR17-71" transform="translate(103.239941 0) scale(0.996264)"/>
      <use xlink:href="#CMR17-75" transform="translate(151.532857 0) scale(0.996264)"/>
      <use xlink:href="#CMR17-65" transform="translate(202.428226 0) scale(0.996264)"/>
      <use xlink:href="#CMR17-6e" transform="translate(242.913887 0) scale(0.996264)"/>
      <use xlink:href="#CMR17-63" transform="translate(293.809257 0) scale(0.996264)"/>
      <use xlink:href="#CMR17-79" transform="translate(334.294917 0) scale(0.996264)"/>
      <use xlink:href="#CMMI12-66" transform="translate(412.663799 0) scale(0.996264)"/>
      <use xlink:href="#CMR17-72" transform="translate(460.747037 -14.943915) scale(0.697382)"/>
      <use xlink:href="#CMR17-66" transform="translate(485.443457 -14.943915) scale(0.697382)"/>
      <use xlink:href="#CMR17-28" transform="translate(539.382756 0) scale(0.996264)"/>
      <use xlink:href="#CMR17-4d" transform="translate(574.663524 0) scale(0.996264)"/>
      <use xlink:href="#CMR17-48" transform="translate(659.350464 0) scale(0.996264)"/>
      <use xlink:href="#CMR17-7a" transform="translate(728.422894 0) scale(0.996264)"/>
      <use xlink:href="#CMR17-29" transform="translate(768.908555 0) scale(0.996264)"/>
     </g>
    </g>
   </g>
   <g id="LineCollection_5">
    <path d="M 490.12384 87.187197 
L 490.12384 39.120254 
" clip-path="url(#pefe266b2e5)" style="fill: none; stroke: #c71585; stroke-width: 1.5"/>
    <path d="M 479.114558 87.126414 
L 479.114558 40.86653 
" clip-path="url(#pefe266b2e5)" style="fill: none; stroke: #c71585; stroke-width: 1.5"/>
    <path d="M 468.105275 86.553318 
L 468.105275 36.160949 
" clip-path="url(#pefe266b2e5)" style="fill: none; stroke: #c71585; stroke-width: 1.5"/>
    <path d="M 335.993886 105.337308 
L 335.993886 105.286014 
" clip-path="url(#pefe266b2e5)" style="fill: none; stroke: #c71585; stroke-width: 1.5"/>
   </g>
   <g id="line2d_46">
    <defs>
     <path id="m1b631cb210" d="M 3 0 
L -3 -0 
" style="stroke: #c71585"/>
    </defs>
    <g clip-path="url(#pefe266b2e5)">
     <use xlink:href="#m1b631cb210" x="490.12384" y="87.187197" style="fill: #c71585; stroke: #c71585"/>
     <use xlink:href="#m1b631cb210" x="479.114558" y="87.126414" style="fill: #c71585; stroke: #c71585"/>
     <use xlink:href="#m1b631cb210" x="468.105275" y="86.553318" style="fill: #c71585; stroke: #c71585"/>
     <use xlink:href="#m1b631cb210" x="335.993886" y="105.337308" style="fill: #c71585; stroke: #c71585"/>
    </g>
   </g>
   <g id="line2d_47">
    <g clip-path="url(#pefe266b2e5)">
     <use xlink:href="#m1b631cb210" x="490.12384" y="39.120254" style="fill: #c71585; stroke: #c71585"/>
     <use xlink:href="#m1b631cb210" x="479.114558" y="40.86653" style="fill: #c71585; stroke: #c71585"/>
     <use xlink:href="#m1b631cb210" x="468.105275" y="36.160949" style="fill: #c71585; stroke: #c71585"/>
     <use xlink:href="#m1b631cb210" x="335.993886" y="105.286014" style="fill: #c71585; stroke: #c71585"/>
    </g>
   </g>
   <g id="line2d_48">
    <path d="M 490.12384 63.153725 
L 479.114558 63.996472 
L 468.105275 61.357134 
L 335.993886 105.311661 
" clip-path="url(#pefe266b2e5)" style="fill: none; stroke: #c71585; stroke-width: 1.5; stroke-linecap: square"/>
    <g clip-path="url(#pefe266b2e5)">
     <use xlink:href="#mb07d763aa5" x="490.12384" y="63.153725" style="fill: #c71585; stroke: #c71585; stroke-linejoin: bevel"/>
     <use xlink:href="#mb07d763aa5" x="479.114558" y="63.996472" style="fill: #c71585; stroke: #c71585; stroke-linejoin: bevel"/>
     <use xlink:href="#mb07d763aa5" x="468.105275" y="61.357134" style="fill: #c71585; stroke: #c71585; stroke-linejoin: bevel"/>
     <use xlink:href="#mb07d763aa5" x="335.993886" y="105.311661" style="fill: #c71585; stroke: #c71585; stroke-linejoin: bevel"/>
    </g>
   </g>
   <g id="patch_53">
    <path d="M 328.287388 108.796126 
L 328.287388 32.702132 
" style="fill: none; stroke: #000000; stroke-width: 0.8; stroke-linejoin: miter; stroke-linecap: square"/>
   </g>
   <g id="patch_54">
    <path d="M 497.830338 108.796126 
L 497.830338 32.702132 
" style="fill: none; stroke: #000000; stroke-width: 0.8; stroke-linejoin: miter; stroke-linecap: square"/>
   </g>
   <g id="patch_55">
    <path d="M 328.287388 108.796126 
L 497.830338 108.796126 
" style="fill: none; stroke: #000000; stroke-width: 0.8; stroke-linejoin: miter; stroke-linecap: square"/>
   </g>
   <g id="patch_56">
    <path d="M 328.287388 32.702132 
L 497.830338 32.702132 
" style="fill: none; stroke: #000000; stroke-width: 0.8; stroke-linejoin: miter; stroke-linecap: square"/>
   </g>
  </g>
 </g>
 <defs>
  <clipPath id="pa5ff424f56">
   <rect x="31.844295" y="32.702132" width="56.514317" height="76.093995"/>
  </clipPath>
  <clipPath id="p80ce43cb48">
   <rect x="123.551525" y="32.702132" width="169.54295" height="76.093995"/>
  </clipPath>
  <clipPath id="pefe266b2e5">
   <rect x="328.287388" y="32.702132" width="169.54295" height="76.093995"/>
  </clipPath>
 </defs>
</svg>
